<svg width="16" height="16" viewBox="0 0 16 16" fill="none" xmlns="http://www.w3.org/2000/svg">
<path fill-rule="evenodd" clip-rule="evenodd" d="M8 15.1328C11.866 15.1328 15 11.9988 15 8.13281C15 4.26682 11.866 1.13281 8 1.13281C4.13401 1.13281 1 4.26682 1 8.13281C1 11.9988 4.13401 15.1328 8 15.1328ZM7.33398 7.46582H8.66732V11.1325H7.33398V7.46582ZM8.83268 5.63314C8.83268 6.09337 8.45959 6.46647 7.99935 6.46647C7.53911 6.46647 7.16602 6.09337 7.16602 5.63314C7.16602 5.1729 7.53911 4.7998 7.99935 4.7998C8.45959 4.7998 8.83268 5.1729 8.83268 5.63314Z" fill="black"/>
</svg>
