<svg width="16" height="16" viewBox="0 0 16 16" fill="none" xmlns="http://www.w3.org/2000/svg">
<path fill-rule="evenodd" clip-rule="evenodd" d="M5.17933 4.35866C5.83066 4.35866 6.35866 3.83066 6.35866 3.17933C6.35866 2.528 5.83066 2 5.17933 2C4.528 2 4 2.528 4 3.17933C4 3.83066 4.528 4.35866 5.17933 4.35866ZM5.6792 5.30106C6.64189 5.07513 7.35866 4.21094 7.35866 3.17933C7.35866 1.97572 6.38294 1 5.17933 1C3.97572 1 3 1.97572 3 3.17933C3 4.21084 3.71664 5.07498 4.6792 5.301V10.4823C4.67221 10.5458 4.66769 10.608 4.66477 10.668C3.70948 10.8992 3 11.7599 3 12.7862C3 13.9898 3.97572 14.9656 5.17933 14.9656C6.38294 14.9656 7.35866 13.9898 7.35866 12.7862C7.35866 11.7546 6.64189 10.8904 5.6792 10.6645V10.5501C5.70484 10.3539 5.76047 10.2252 5.87382 10.1191C6.08029 9.926 6.60135 9.69889 7.93974 9.69889L7.93975 9.69889C9.31615 9.69884 10.1895 9.40138 10.7112 8.89117C11.1386 8.47312 11.2619 7.97864 11.2938 7.58961C12.2699 7.37354 13 6.50291 13 5.46177C13 4.25816 12.0243 3.28244 10.8207 3.28244C9.61708 3.28244 8.64136 4.25816 8.64136 5.46177C8.64136 6.48243 9.343 7.33921 10.2903 7.5761C10.263 7.79765 10.1884 8.00365 10.012 8.17627C9.76139 8.42135 9.20272 8.69885 7.93974 8.69889C6.93426 8.69889 6.19925 8.81508 5.6792 9.06255V5.30106ZM6.35866 12.7862C6.35866 13.4376 5.83066 13.9656 5.17933 13.9656C4.528 13.9656 4 13.4376 4 12.7862C4 12.1349 4.528 11.6069 5.17933 11.6069C5.83066 11.6069 6.35866 12.1349 6.35866 12.7862ZM10.8207 6.6411C11.472 6.6411 12 6.1131 12 5.46177C12 4.81044 11.472 4.28244 10.8207 4.28244C10.1694 4.28244 9.64136 4.81044 9.64136 5.46177C9.64136 6.1131 10.1694 6.6411 10.8207 6.6411Z" fill="black"/>
</svg>
