<svg width="16" height="16" viewBox="0 0 16 16" fill="none" xmlns="http://www.w3.org/2000/svg">
<path fill-rule="evenodd" clip-rule="evenodd" d="M11.5098 13.5001C11.5098 13.7763 11.7336 14.0001 12.0098 14.0001C12.2859 14.0001 12.5098 13.7763 12.5098 13.5001V11.502H14.5C14.7761 11.502 15 11.2781 15 11.002C15 10.7258 14.7761 10.502 14.5 10.502H12.5098V8.5C12.5098 8.22386 12.2859 8 12.0098 8C11.7336 8 11.5098 8.22386 11.5098 8.5V10.502H9.5C9.22386 10.502 9 10.7258 9 11.002C9 11.2781 9.22386 11.502 9.5 11.502H11.5098V13.5001Z" fill="black"/>
<path d="M9.4751 12H2V4H5.38197L6.07793 5.39193C6.26426 5.7646 6.64516 6 7.0618 6H14V8.51434H15V5.5C15 5.22386 14.7761 5 14.5 5H7.0618C7.02393 5 6.9893 4.9786 6.97236 4.94472L6.05528 3.11056C6.0214 3.0428 5.95215 3 5.87639 3H1.5C1.22386 3 1 3.22386 1 3.5V12.5C1 12.7761 1.22386 13 1.5 13H9.4751V12Z" fill="black"/>
</svg>
