<svg width="16" height="16" viewBox="0 0 16 16" fill="none" xmlns="http://www.w3.org/2000/svg">
<path fill-rule="evenodd" clip-rule="evenodd" d="M12.5 2.71156C12.5 2.71157 12.5 2.71155 12.5 2.71156L12.5 2.71372L12.4999 2.72173L12.4993 2.75475C12.4987 2.78411 12.4977 2.82783 12.4961 2.88419C12.4929 2.99693 12.4873 3.16004 12.4777 3.35959C12.4583 3.75932 12.4229 4.30235 12.3586 4.87836C12.2942 5.45644 12.2019 6.05651 12.0714 6.57417C11.9363 7.11012 11.7768 7.48743 11.6165 7.67918C11.2723 8.09073 10.6785 8.29725 9.88503 8.37655C9.32341 8.43267 8.74543 8.42026 8.17804 8.40808C7.9411 8.40299 7.70599 8.39794 7.4747 8.39794C6.6724 8.39794 5.96563 8.4312 5.31145 8.60405C4.64263 8.78077 4.04902 9.09737 3.45423 9.63194C2.76431 10.252 2.55599 11.2514 2.4918 11.9796C2.4582 12.3607 2.46104 12.7068 2.47204 12.957C2.47756 13.0826 2.4852 13.1853 2.49159 13.2577C2.49478 13.2939 2.49767 13.3226 2.49984 13.3429L2.5025 13.367L2.50334 13.3741L2.50361 13.3763L2.50375 13.3775C2.50377 13.3776 2.50378 13.3777 3 13.3164L2.50375 13.3775C2.53765 13.6515 2.78732 13.8465 3.06138 13.8126C3.33527 13.7787 3.52989 13.5293 3.49628 13.2555L3.4959 13.2522L3.49418 13.2367C3.49263 13.2222 3.49034 13.1996 3.48772 13.1698C3.48246 13.1103 3.47588 13.0223 3.47108 12.9131C3.46143 12.6936 3.4592 12.3933 3.48793 12.0674C3.54839 11.3816 3.73429 10.7248 4.12268 10.3757C4.60619 9.94114 5.06003 9.7048 5.56691 9.57087C6.08844 9.43307 6.68564 9.39794 7.4747 9.39794C7.66286 9.39794 7.87115 9.40239 8.09206 9.4071C8.68053 9.41966 9.35859 9.43413 9.98446 9.37159C10.848 9.2853 11.7796 9.04283 12.3835 8.32073C12.6972 7.94565 12.8998 7.37928 13.0411 6.81856C13.187 6.23954 13.2855 5.58994 13.3525 4.98921C13.4197 4.3864 13.4565 3.82146 13.4765 3.40793C13.4865 3.20086 13.4924 3.03101 13.4957 2.91245C13.4974 2.85316 13.4985 2.80665 13.4991 2.77469L13.4998 2.73785L13.4999 2.72801L13.5 2.72426C13.5 2.72418 13.5 2.72411 13 2.71785L13.5 2.72426C13.5034 2.44814 13.2824 2.22135 13.0063 2.21789C12.7302 2.21444 12.5035 2.43547 12.5 2.71156Z" fill="black"/>
</svg>
