<svg width="16" height="16" viewBox="0 0 16 16" fill="none" xmlns="http://www.w3.org/2000/svg">
<path fill-rule="evenodd" clip-rule="evenodd" d="M2 2.5C2 2.22386 2.22386 2 2.5 2H13.5C13.7761 2 14 2.22386 14 2.5V3.82461C14 3.93815 13.9614 4.0483 13.8904 4.13696L10.1096 8.86304C10.0386 8.9517 10 9.06185 10 9.17539V13.5C10 13.7761 9.77614 14 9.5 14H6.5C6.22386 14 6 13.7761 6 13.5V9.17737C6 9.06262 5.96054 8.95137 5.88823 8.86228L2.11177 4.20915C2.03946 4.12005 2 4.0088 2 3.89406V2.5Z" fill="black"/>
</svg>
