<svg width="16" height="16" viewBox="0 0 16 16" fill="none" xmlns="http://www.w3.org/2000/svg">
<path fill-rule="evenodd" clip-rule="evenodd" d="M2 3.5C2 3.22386 2.22386 3 2.5 3L13.5 3C13.7761 3 14 3.22386 14 3.5C14 3.77614 13.7761 4 13.5 4L2.5 4C2.22386 4 2 3.77614 2 3.5Z" fill="black"/>
<path fill-rule="evenodd" clip-rule="evenodd" d="M2.00098 8C2.00098 7.72386 2.22483 7.5 2.50098 7.5L13.501 7.5C13.7771 7.5 14.001 7.72386 14.001 8C14.001 8.27614 13.7771 8.5 13.501 8.5L2.50098 8.5C2.22483 8.5 2.00098 8.27614 2.00098 8Z" fill="black"/>
<path fill-rule="evenodd" clip-rule="evenodd" d="M2 12.5C2 12.2239 2.22386 12 2.5 12L13.5 12C13.7761 12 14 12.2239 14 12.5C14 12.7761 13.7761 13 13.5 13L2.5 13C2.22386 13 2 12.7761 2 12.5Z" fill="black"/>
</svg>
