<svg width="16" height="16" viewBox="0 0 16 16" fill="none" xmlns="http://www.w3.org/2000/svg">
<path fill-rule="evenodd" clip-rule="evenodd" d="M10.3478 6.69565C10.3478 8.71269 8.71269 10.3478 6.69565 10.3478C4.67861 10.3478 3.04348 8.71269 3.04348 6.69565C3.04348 4.67861 4.67861 3.04348 6.69565 3.04348C8.71269 3.04348 10.3478 4.67861 10.3478 6.69565ZM9.62616 10.3648C8.82293 11.0072 7.80415 11.3913 6.69565 11.3913C4.10231 11.3913 2 9.28899 2 6.69565C2 4.10231 4.10231 2 6.69565 2C9.28899 2 11.3913 4.10231 11.3913 6.69565C11.3913 7.80456 11.0069 8.8237 10.3641 9.62707L13.8467 13.1097C14.0505 13.3134 14.0505 13.6438 13.8467 13.8475C13.643 14.0513 13.3126 14.0513 13.1089 13.8475L9.62616 10.3648Z" fill="black"/>
</svg>
