<svg width="16" height="16" viewBox="0 0 16 16" fill="none" xmlns="http://www.w3.org/2000/svg">
<path fill-rule="evenodd" clip-rule="evenodd" d="M2.16014 2.15976C2.37316 1.94675 2.71852 1.94675 2.93153 2.15976L8.22685 7.45508H10.7297C11.0309 7.45508 11.2751 7.69929 11.2751 8.00053C11.2751 8.30178 11.0309 8.54599 10.7297 8.54599H9.31776L13.8406 13.0689C14.0536 13.2819 14.0536 13.6272 13.8406 13.8402C13.6276 14.0533 13.2822 14.0533 13.0692 13.8402L7.77498 8.54599H5.27513C4.97389 8.54599 4.72968 8.30178 4.72968 8.00053C4.72968 7.69929 4.97389 7.45508 5.27513 7.45508H6.68407L2.16014 2.93115C1.94713 2.71814 1.94713 2.37277 2.16014 2.15976ZM13.238 9.99792L13.9459 10.7059C14.6004 9.99368 15 9.0435 15 8C15 5.79086 13.2091 4 11 4H9V5H11C12.6569 5 14 6.34315 14 8C14 8.76735 13.7119 9.46741 13.238 9.99792ZM2.79355 5.96735L2.086 5.2598C1.4126 5.97564 1 6.93964 1 8C1 10.2091 2.79086 12 5 12L7 12V11H5C3.34315 11 2 9.65685 2 8C2 7.21578 2.3009 6.50185 2.79355 5.96735Z" fill="black"/>
</svg>
