<svg width="16" height="16" viewBox="0 0 16 16" fill="none" xmlns="http://www.w3.org/2000/svg">
<path d="M12 11.5C12 11.7761 11.7761 12 11.5 12C11.2239 12 11 11.7761 11 11.5C11 11.2239 11.2239 11 11.5 11C11.7761 11 12 11.2239 12 11.5Z" fill="black"/>
<path fill-rule="evenodd" clip-rule="evenodd" d="M4.5 4.75C4.77614 4.75 5 4.97386 5 5.25V6.25C5 6.52614 4.77614 6.75 4.5 6.75C4.22386 6.75 4 6.52614 4 6.25V5.25C4 4.97386 4.22386 4.75 4.5 4.75Z" fill="black"/>
<path fill-rule="evenodd" clip-rule="evenodd" d="M3.00098 9.5H9V13C9 13.5523 9.44772 14 10 14H13.0009C13.5532 14 14.0009 13.5523 14.0009 13V7C14.0009 6.44772 13.5532 6 13.0009 6H12.001V3C12.001 2.44772 11.5533 2 11.001 2H3.00098C2.44869 2 2.00098 2.44772 2.00098 3V8.5C2.00098 9.05228 2.44869 9.5 3.00098 9.5ZM11.001 3H3.00098V8.5L9 8.5V7C9 6.44772 9.44772 6 10 6H11.001V3ZM13.0009 7H13H12.001H11.001H10V8.5V9.5V11V13H13.0009V7Z" fill="black"/>
</svg>
