<svg width="16" height="16" viewBox="0 0 16 16" fill="none" xmlns="http://www.w3.org/2000/svg">
<path fill-rule="evenodd" clip-rule="evenodd" d="M2 7.7963C2 4.28821 4.64176 2 6.98148 2C7.16397 2 7.33197 2.09942 7.41978 2.2594C7.5076 2.41937 7.50129 2.61448 7.40331 2.76844C4.83857 6.79874 9.20125 11.1614 13.2316 8.59669C13.3855 8.49871 13.5806 8.4924 13.7406 8.58022C13.9006 8.66803 14 8.83603 14 9.01852C14 11.3582 11.7118 14 8.2037 14C4.6683 14 2 11.3317 2 7.7963ZM6.07347 3.14969C4.55309 3.6372 3 5.29358 3 7.7963C3 10.7794 5.22059 13 8.2037 13C10.7064 13 12.3628 11.4469 12.8503 9.92653C8.50547 11.7809 4.21911 7.49453 6.07347 3.14969Z" fill="black"/>
</svg>
