<svg width="16" height="16" viewBox="0 0 16 16" fill="none" xmlns="http://www.w3.org/2000/svg">
<path fill-rule="evenodd" clip-rule="evenodd" d="M8 15C11.866 15 15 11.866 15 8C15 4.13401 11.866 1 8 1C4.13401 1 1 4.13401 1 8C1 11.866 4.13401 15 8 15ZM10.8531 5.14645C11.0484 5.34171 11.0484 5.65829 10.8531 5.85355L8.70668 8L10.8531 10.1464C11.0484 10.3417 11.0484 10.6583 10.8531 10.8536C10.6579 11.0488 10.3413 11.0488 10.146 10.8536L7.99957 8.70711L5.85313 10.8536C5.65787 11.0488 5.34128 11.0488 5.14602 10.8536C4.95076 10.6583 4.95076 10.3417 5.14602 10.1464L7.29247 8L5.14602 5.85355C4.95076 5.65829 4.95076 5.34171 5.14602 5.14645C5.34128 4.95118 5.65787 4.95118 5.85313 5.14645L7.99957 7.29289L10.146 5.14645C10.3413 4.95118 10.6579 4.95118 10.8531 5.14645Z" fill="black"/>
</svg>
