<svg width="16" height="16" viewBox="0 0 16 16" fill="none" xmlns="http://www.w3.org/2000/svg">
<path fill-rule="evenodd" clip-rule="evenodd" d="M5.99674 2.00343C5.99674 1.44925 6.44497 1 6.99788 1H9.00322C9.55613 1 10.0044 1.44925 10.0044 2.00343V2.95881H9.00322L9.00322 2.00343H6.99788V2.95881H5.99674V2.00343ZM13.7998 3.96241C13.9104 3.96241 14 3.87256 14 3.76173V3.15967C14 3.04883 13.9104 2.95898 13.7998 2.95898H13.0047H2.99332H2.20023C2.08965 2.95898 2 3.04883 2 3.15967V3.76173C2 3.87256 2.08965 3.96241 2.20023 3.96241H3.07675L3.91796 14.08C3.9612 14.6001 4.39496 15.0001 4.91564 15.0001H11.0824C11.6031 15.0001 12.0368 14.6001 12.0801 14.08L12.9213 3.96241H13.7998ZM7.01875 6.90737V11.8984C7.01875 12.1827 6.78879 12.4132 6.50513 12.4132C6.22147 12.4132 5.99152 12.1827 5.99152 11.8984V6.90737C5.99152 6.62306 6.22147 6.39258 6.50513 6.39258C6.78879 6.39258 7.01875 6.62306 7.01875 6.90737ZM9.99574 6.93937V11.8664C9.99574 12.1684 9.75149 12.4132 9.4502 12.4132C9.1489 12.4132 8.90465 12.1684 8.90465 11.8664V6.93937C8.90465 6.63738 9.1489 6.39258 9.4502 6.39258C9.75149 6.39258 9.99574 6.63738 9.99574 6.93937Z" fill="black"/>
</svg>
