<svg width="16" height="16" viewBox="0 0 16 16" fill="none" xmlns="http://www.w3.org/2000/svg">
<path d="M8 5.33325C8.55228 5.33325 9 4.88554 9 4.33325C9 3.78097 8.55228 3.33325 8 3.33325C7.44772 3.33325 7 3.78097 7 4.33325C7 4.88554 7.44772 5.33325 8 5.33325Z" fill="black"/>
<path d="M10.1664 4.80011C9.9952 4.89901 9.85715 5.04646 9.76971 5.22381C9.68227 5.40116 9.64937 5.60046 9.67517 5.7965C9.70097 5.99254 9.78432 6.17654 9.91466 6.32522C10.045 6.47391 10.2165 6.58062 10.4075 6.63186C10.5985 6.6831 10.8004 6.67657 10.9876 6.61309C11.1749 6.54962 11.3391 6.43205 11.4596 6.27525C11.5801 6.11845 11.6514 5.92946 11.6644 5.73215C11.6775 5.53485 11.6318 5.3381 11.5331 5.16677C11.4675 5.05291 11.3801 4.95309 11.2759 4.87303C11.1716 4.79296 11.0527 4.73423 10.9258 4.70017C10.7988 4.66612 10.6664 4.65742 10.5361 4.67457C10.4058 4.69171 10.2802 4.73437 10.1664 4.80011ZM5.83309 4.80011C5.66176 4.70139 5.46501 4.65568 5.26771 4.66876C5.07041 4.68184 4.88141 4.75312 4.72461 4.87358C4.56781 4.99405 4.45024 5.1583 4.38677 5.34557C4.32329 5.53284 4.31676 5.73472 4.368 5.9257C4.41924 6.11668 4.52595 6.28818 4.67464 6.41853C4.82332 6.54888 5.00732 6.63222 5.20336 6.65802C5.3994 6.68382 5.5987 6.65092 5.77605 6.56349C5.9534 6.47605 6.10085 6.33799 6.19975 6.16677C6.26549 6.05298 6.30815 5.92735 6.3253 5.79705C6.34244 5.66676 6.33374 5.53437 6.29969 5.40744C6.26563 5.28052 6.2069 5.16155 6.12683 5.05733C6.04677 4.95312 5.94695 4.86572 5.83309 4.80011ZM4.10642 7.50677C3.9424 7.61752 3.81493 7.77445 3.74015 7.95769C3.66537 8.14093 3.64664 8.34224 3.68634 8.53612C3.72604 8.73001 3.82237 8.90776 3.96315 9.04686C4.10393 9.18597 4.28282 9.28017 4.47717 9.31755C4.67152 9.35492 4.87259 9.33379 5.05492 9.25682C5.23725 9.17985 5.39264 9.05051 5.50142 8.88518C5.6102 8.71984 5.66747 8.52595 5.66599 8.32805C5.6645 8.13014 5.60433 7.93713 5.49309 7.77344C5.42 7.66434 5.32602 7.57081 5.21656 7.49827C5.1071 7.42572 4.98434 7.3756 4.85539 7.3508C4.72644 7.32601 4.59384 7.32702 4.46529 7.35379C4.33673 7.38056 4.21475 7.43256 4.10642 7.50677Z" fill="black"/>
<path fill-rule="evenodd" clip-rule="evenodd" d="M2.22852 8C2.22852 11.1874 4.81239 13.7712 7.99976 13.7712C8.30716 13.7712 8.41796 13.6282 8.45358 13.5353C8.48951 13.4416 8.51653 13.2102 8.22619 12.9199C8.04145 12.7351 7.78695 12.4288 7.72737 12.0073C7.65282 11.48 7.91292 11.0768 8.19348 10.8464C8.43225 10.6503 8.71214 10.5479 8.91476 10.488C9.13584 10.4226 9.37728 10.3764 9.61053 10.3407C9.98768 10.2829 10.4261 10.2412 10.8367 10.2021C10.9272 10.1934 11.0164 10.1849 11.1033 10.1764C11.6123 10.1266 12.0546 10.0754 12.393 9.99973C13.3605 9.78348 13.771 8.90968 13.771 8C13.771 4.81263 11.1871 2.22876 7.99976 2.22876C4.81239 2.22876 2.22852 4.81263 2.22852 8ZM12.6112 10.9756C14.2356 10.6125 14.771 9.1364 14.771 8C14.771 4.26035 11.7394 1.22876 7.99976 1.22876C4.2601 1.22876 1.22852 4.26035 1.22852 8C1.22852 11.7397 4.2601 14.7712 7.99976 14.7712C9.38528 14.7712 10.0032 13.2827 8.9333 12.2127C8.18058 11.46 9.50331 11.3338 10.9194 11.1987C11.5162 11.1418 12.1296 11.0833 12.6112 10.9756Z" fill="black"/>
</svg>
