<svg width="16" height="16" viewBox="0 0 16 16" fill="none" xmlns="http://www.w3.org/2000/svg">
<path fill-rule="evenodd" clip-rule="evenodd" d="M13.9934 3.50134C13.9929 3.2252 13.7686 3.00178 13.4925 3.00232C13.2163 3.00286 12.9929 3.22715 12.9935 3.5033L13.011 12.4987C13.0116 12.7749 13.2358 12.9983 13.512 12.9977C13.7881 12.9972 14.0116 12.7729 14.011 12.4968L13.9934 3.50134ZM8.20308 4.13984C8.00923 3.95291 7.69551 3.95346 7.50236 4.14106C7.30921 4.32867 7.30977 4.63229 7.50362 4.81922L10.3049 7.52055L2.49549 7.52055C2.22184 7.52055 2 7.73524 2 8.00008C2 8.26492 2.22184 8.47961 2.49549 8.47961L10.3047 8.47961L7.50362 11.1807C7.30977 11.3677 7.30921 11.6713 7.50236 11.8589C7.69551 12.0465 8.00923 12.0471 8.20308 11.8601L11.8537 8.33973C11.9509 8.24603 11.9995 8.12301 11.9995 7.99998C11.9995 7.87695 11.9509 7.75393 11.8537 7.66023L8.20308 4.13984Z" fill="black"/>
</svg>
