<svg width="16" height="16" viewBox="0 0 16 16" fill="none" xmlns="http://www.w3.org/2000/svg">
<path d="M8.00004 3.50482C8.00004 3.22906 8.2239 3.00551 8.50004 3.00551C8.77618 3.00551 9.00003 3.22906 9.00003 3.50482L9.00003 7.50618C9.00003 7.78194 8.77617 8.00549 8.50004 8.00549C8.2239 8.00549 8.00004 7.78194 8.00004 7.50618L8.00004 3.50482Z" fill="black"/>
<path d="M12.4993 7.00545C12.7758 7.00545 13 7.22931 13 7.50545C13 7.78158 12.7758 8.00544 12.4993 8.00544L8.50004 8.00549C8.2239 8.00549 8.00004 7.78194 8.00004 7.50618C8.00004 7.23004 8.22416 7.00545 8.50067 7.00545L12.4993 7.00545Z" fill="black"/>
<path d="M11.8459 3.47067C12.0377 3.27882 12.3488 3.27882 12.5406 3.47067C12.7325 3.66252 12.7325 3.97357 12.5406 4.16542L9.34768 7.35836C9.15583 7.55021 8.84478 7.55021 8.65293 7.35836C8.46108 7.16651 8.46108 6.85545 8.65293 6.6636L11.8459 3.47067Z" fill="black"/>
<path d="M8 12.5007C8 12.7764 7.77614 13 7.50001 13C7.22387 13 7.00001 12.7764 7.00001 12.5007L7.00001 8.49933C7.00001 8.22356 7.22387 8.00001 7.50001 8.00001C7.77615 8.00001 8 8.22356 8 8.49933L8 12.5007Z" fill="black"/>
<path d="M3.50072 9C3.2242 9 3.00004 8.77615 3.00004 8.50001C3.00004 8.22387 3.2242 8.00001 3.50072 8.00001L7.50001 8.00001C7.77615 8.00001 8 8.22356 8 8.49933C8 8.77547 7.77588 9 7.49937 9L3.50072 9Z" fill="black"/>
<path d="M4.15418 12.5348C3.96233 12.7267 3.65128 12.7267 3.45942 12.5348C3.26757 12.343 3.26757 12.0319 3.45943 11.8401L6.65236 8.64714C6.84421 8.45528 7.15526 8.45528 7.34712 8.64714C7.53897 8.83899 7.53897 9.15004 7.34712 9.34189L4.15418 12.5348Z" fill="black"/>
</svg>
