<svg width="16" height="16" viewBox="0 0 16 16" fill="none" xmlns="http://www.w3.org/2000/svg">
<path fill-rule="evenodd" clip-rule="evenodd" d="M8 14C11.3137 14 14 11.3137 14 8C14 4.68629 11.3137 2 8 2C4.68629 2 2 4.68629 2 8C2 11.3137 4.68629 14 8 14ZM8 15C11.866 15 15 11.866 15 8C15 4.13401 11.866 1 8 1C4.13401 1 1 4.13401 1 8C1 11.866 4.13401 15 8 15Z" fill="black"/>
<path fill-rule="evenodd" clip-rule="evenodd" d="M11.2868 5.09043C11.513 5.24878 11.568 5.56055 11.4097 5.78677L8.07754 10.547C7.795 10.9506 7.19495 10.9438 6.92165 10.5338L5.08403 7.77739C4.93085 7.54763 4.99294 7.23719 5.2227 7.08402C5.45247 6.93084 5.7629 6.99293 5.91608 7.22269L7.51012 9.61376L10.5904 5.21331C10.7488 4.98709 11.0606 4.93207 11.2868 5.09043Z" fill="black"/>
</svg>
