<svg width="16" height="16" viewBox="0 0 16 16" fill="none" xmlns="http://www.w3.org/2000/svg">
<path fill-rule="evenodd" clip-rule="evenodd" d="M7.73804 9.83869C7.89875 9.93758 8.10144 9.93758 8.26214 9.83869L13.8081 6.42578C14.1254 6.23053 14.1254 5.76936 13.8081 5.57412L8.26214 2.16121C8.10144 2.06231 7.89875 2.06231 7.73804 2.16121L2.19205 5.57412C1.87478 5.76936 1.87478 6.23053 2.19205 6.42578L7.73804 9.83869ZM3.40812 5.99995L8.00009 8.82577L12.592 5.99995L8.00009 3.17413L3.40812 5.99995Z" fill="black"/>
<path fill-rule="evenodd" clip-rule="evenodd" d="M2.1139 8.22466C2.25192 7.98548 2.5577 7.90348 2.79687 8.04151L8.00177 11.0452L13.2574 8.04059C13.4972 7.90354 13.8026 7.98678 13.9397 8.22651C14.0767 8.46624 13.9935 8.77169 13.7537 8.90874L8.49807 11.9133C8.1893 12.0899 7.81 12.0891 7.50194 11.9113L2.29704 8.90763C2.05787 8.76961 1.97587 8.46383 2.1139 8.22466Z" fill="black"/>
<path fill-rule="evenodd" clip-rule="evenodd" d="M2.08753 10.2547C2.22555 10.0155 2.53133 9.93351 2.77051 10.0715L7.9754 13.0752L13.2311 10.0706C13.4708 9.93357 13.7762 10.0168 13.9133 10.2565C14.0504 10.4963 13.9671 10.8017 13.7274 10.9388L8.47171 13.9434C8.16293 14.1199 7.78363 14.1191 7.47557 13.9413L2.27068 10.9377C2.0315 10.7996 1.94951 10.4939 2.08753 10.2547Z" fill="black"/>
</svg>
