<svg width="16" height="16" viewBox="0 0 16 16" fill="none" xmlns="http://www.w3.org/2000/svg">
<path fill-rule="evenodd" clip-rule="evenodd" d="M7.50221 12.5C7.50221 12.7762 7.72607 13 8.00221 13C8.27835 13 8.50221 12.7762 8.50221 12.5V8.50005H12.5C12.7761 8.50005 13 8.27619 13 8.00005C13 7.72391 12.7761 7.50005 12.5 7.50005H8.50221V3.49988C8.50221 3.22374 8.27835 2.99988 8.00221 2.99988C7.72607 2.99988 7.50221 3.22374 7.50221 3.49988V7.50005H3.5C3.22386 7.50005 3 7.72391 3 8.00005C3 8.27619 3.22386 8.50005 3.5 8.50005H7.50221V12.5Z" fill="black"/>
</svg>
