<svg width="16" height="16" viewBox="0 0 16 16" fill="none" xmlns="http://www.w3.org/2000/svg">
<path fill-rule="evenodd" clip-rule="evenodd" d="M13.9228 8.9653C13.9736 8.65104 14 8.32861 14 8C14 7.67139 13.9736 7.34896 13.9228 7.0347L12.1213 7.48507C12.0701 7.49785 12.0189 7.50226 11.9689 7.49917C11.9894 7.66323 12 7.83038 12 8C12 8.16962 11.9894 8.33677 11.9689 8.50083C12.0189 8.49774 12.0701 8.50215 12.1213 8.51493L13.9228 8.9653ZM13.6809 9.93562L11.8787 9.48507C11.8278 9.47235 11.7807 9.45224 11.7383 9.42618C11.3329 10.4881 10.4881 11.3329 9.42618 11.7383C9.45099 11.7787 9.47043 11.8234 9.48324 11.8716L9.96158 13.672C11.706 13.0688 13.0855 11.6836 13.6809 9.93562ZM8 12C8.16962 12 8.33677 11.9894 8.50083 11.9689C8.49758 12.0213 8.50257 12.075 8.51676 12.1284L8.99233 13.9183C8.66954 13.972 8.33803 14 8 14C7.67139 14 7.34896 13.9736 7.0347 13.9228L7.48507 12.1213C7.49785 12.0701 7.50226 12.0189 7.49917 11.9689C7.66323 11.9894 7.83038 12 8 12ZM6.57382 11.7383C5.51192 11.3329 4.66709 10.4881 4.26173 9.42618C4.21927 9.45224 4.17217 9.47235 4.12127 9.48507L2.31907 9.93562C2.91744 11.6923 4.30771 13.0826 6.06438 13.6809L6.51493 11.8787C6.52765 11.8278 6.54776 11.7807 6.57382 11.7383ZM11.8787 6.51493L13.6809 6.06438C13.0826 4.30771 11.6923 2.91744 9.93562 2.31907L9.48507 4.12127C9.47235 4.17217 9.45224 4.21927 9.42618 4.26173C10.4881 4.66709 11.3329 5.51192 11.7383 6.57382C11.7807 6.54776 11.8278 6.52765 11.8787 6.51493ZM8.50083 4.03105C8.33677 4.01056 8.16962 4 8 4C7.83038 4 7.66323 4.01056 7.49917 4.03105C7.50226 3.98111 7.49785 3.92986 7.48507 3.87873L7.0347 2.07724C7.34896 2.02642 7.67139 2 8 2C8.32861 2 8.65104 2.02642 8.9653 2.07724L8.51493 3.87873C8.50215 3.92986 8.49774 3.98111 8.50083 4.03105ZM2.31907 6.06438C2.91744 4.3077 4.3077 2.91744 6.06438 2.31907L6.51493 4.12127C6.52765 4.17217 6.54776 4.21927 6.57382 4.26173C5.51192 4.66709 4.66709 5.51192 4.26173 6.57382C4.21927 6.54776 4.17217 6.52765 4.12127 6.51493L2.31907 6.06438ZM4.03105 8.50083C4.01056 8.33677 4 8.16962 4 8C4 7.83038 4.01056 7.66323 4.03105 7.49917C3.98111 7.50226 3.92986 7.49785 3.87873 7.48507L2.07724 7.0347C2.02642 7.34896 2 7.67139 2 8C2 8.32861 2.02642 8.65104 2.07724 8.9653L3.87873 8.51493C3.92986 8.50215 3.98111 8.49774 4.03105 8.50083ZM8 15C11.866 15 15 11.866 15 8C15 4.13401 11.866 1 8 1C4.13401 1 1 4.13401 1 8C1 11.866 4.13401 15 8 15ZM11 8C11 9.65685 9.65685 11 8 11C6.34315 11 5 9.65685 5 8C5 6.34315 6.34315 5 8 5C9.65685 5 11 6.34315 11 8Z" fill="black"/>
</svg>
