<svg width="16" height="16" viewBox="0 0 16 16" fill="none" xmlns="http://www.w3.org/2000/svg">
<path fill-rule="evenodd" clip-rule="evenodd" d="M15 8C15 11.866 11.866 15 8 15C4.13401 15 1 11.866 1 8C1 4.13401 4.13401 1 8 1C11.866 1 15 4.13401 15 8ZM8.44678 9.91486H7.26611C7.27035 9.50861 7.30631 9.17641 7.37402 8.91827C7.44596 8.6559 7.56234 8.41681 7.72314 8.20099C7.88395 7.98517 8.09766 7.73973 8.36426 7.46466C8.55892 7.26577 8.73665 7.07957 8.89746 6.90607C9.0625 6.72833 9.1958 6.5379 9.29736 6.33478C9.39893 6.12742 9.44971 5.87986 9.44971 5.5921C9.44971 5.30011 9.39681 5.04832 9.29102 4.83673C9.18945 4.62514 9.03711 4.46222 8.83398 4.34796C8.63509 4.2337 8.38753 4.17657 8.09131 4.17657C7.84587 4.17657 7.61312 4.22101 7.39307 4.30988C7.17301 4.39874 6.99528 4.53628 6.85986 4.72247C6.72445 4.90444 6.65462 5.14353 6.65039 5.43976H5.47607C5.48454 4.96157 5.60303 4.55109 5.83154 4.20831C6.06429 3.86554 6.37744 3.60317 6.771 3.4212C7.16455 3.23924 7.60465 3.14825 8.09131 3.14825C8.62874 3.14825 9.08577 3.24559 9.4624 3.44025C9.84326 3.63491 10.1331 3.9142 10.332 4.27814C10.5309 4.63784 10.6304 5.06525 10.6304 5.56036C10.6304 5.94122 10.5521 6.29246 10.3955 6.61407C10.2432 6.93146 10.0464 7.2298 9.80518 7.50909C9.56396 7.78839 9.30794 8.05499 9.03711 8.3089C8.80436 8.52472 8.64779 8.76805 8.56738 9.03888C8.48698 9.30971 8.44678 9.6017 8.44678 9.91486ZM7.21533 11.9271C7.21533 11.7366 7.27458 11.5758 7.39307 11.4446C7.51156 11.3135 7.68294 11.2479 7.90723 11.2479C8.13574 11.2479 8.30925 11.3135 8.42773 11.4446C8.54622 11.5758 8.60547 11.7366 8.60547 11.9271C8.60547 12.109 8.54622 12.2656 8.42773 12.3968C8.30925 12.528 8.13574 12.5936 7.90723 12.5936C7.68294 12.5936 7.51156 12.528 7.39307 12.3968C7.27458 12.2656 7.21533 12.109 7.21533 11.9271Z" fill="black"/>
</svg>
