<svg width="16" height="16" viewBox="0 0 16 16" fill="none" xmlns="http://www.w3.org/2000/svg">
<path fill-rule="evenodd" clip-rule="evenodd" d="M10.3333 2.86898L9.63774 1.00027L6.36909 1L5.67185 2.86898L4.5492 3.45471L2.52354 3.18625L1 5.84605L2.23306 7.38847L2.16667 8.5836L1 10.2327L2.51748 12.7815L4.57404 12.5299L5.66667 13.1534L6.49934 15.0003H9.60607L10.3333 13.1534L11.4001 12.5299L13.494 12.7815L15 10.2205L13.8333 8.5836V7.41694L15 5.7785L13.4159 3.15573L11.5 3.45471L10.3333 2.86898ZM12.9069 4.24726L11.3376 4.49215L9.5333 3.58627L8.94292 2.00021L7.06333 2.00006L6.47464 3.57805L4.73135 4.48759L3.05762 4.26577L2.2058 5.75289L3.25271 7.06247L3.14917 8.92631L2.19175 10.2796L3.0432 11.7097L4.78172 11.497L6.44467 12.446L7.14542 14.0003H8.92511L9.52975 12.4648L11.1857 11.4969L12.9637 11.7106L13.8092 10.2727L12.8333 8.9035V7.09728L13.8045 5.7334L12.9069 4.24726Z" fill="black"/>
<path fill-rule="evenodd" clip-rule="evenodd" d="M8.00065 9.91756C9.0592 9.91756 9.91732 9.05944 9.91732 8.0009C9.91732 6.94235 9.0592 6.08423 8.00065 6.08423C6.94211 6.08423 6.08398 6.94235 6.08398 8.0009C6.08398 9.05944 6.94211 9.91756 8.00065 9.91756ZM8.00065 10.9176C9.61148 10.9176 10.9173 9.61173 10.9173 8.0009C10.9173 6.39006 9.61148 5.08423 8.00065 5.08423C6.38982 5.08423 5.08398 6.39006 5.08398 8.0009C5.08398 9.61173 6.38982 10.9176 8.00065 10.9176Z" fill="black"/>
</svg>
