<svg width="16" height="16" viewBox="0 0 16 16" fill="none" xmlns="http://www.w3.org/2000/svg">
<path fill-rule="evenodd" clip-rule="evenodd" d="M7.09059 2.43215C6.91713 2.22802 6.60204 2.22802 6.42857 2.43215C6.36184 2.51068 6.3252 2.61038 6.3252 2.71344V4.33004L6.98908 3.64635C7.05154 3.58203 7.12053 3.52791 7.19397 3.48402V2.71344C7.19397 2.61038 7.15733 2.51068 7.09059 2.43215ZM8.19397 3.46955V2.71344C8.19397 2.37314 8.07298 2.04392 7.85262 1.7846C7.27981 1.11054 6.23936 1.11054 5.66655 1.7846C5.44619 2.04392 5.3252 2.37314 5.3252 2.71344V5.35988L2.22887 8.54859C1.84171 8.9473 1.85392 9.5852 2.25605 9.9688L6.25861 13.787C6.64515 14.1557 7.25324 14.1555 7.63955 13.7866L12.5101 9.13458C12.5476 9.09881 12.5816 9.06085 12.6123 9.02109L12.3655 9.88884L12.0669 10.9385C12.0229 11.0933 12.0181 11.2566 12.0529 11.4137L12.0662 11.4738C12.2877 12.4729 13.712 12.4729 13.9334 11.4738C13.9766 11.2791 13.9578 11.0757 13.8797 10.8921L13.424 9.82232L12.8194 8.40248C12.8171 8.14803 12.7184 7.89411 12.5227 7.7005L8.40976 3.63205C8.34383 3.56683 8.27113 3.51267 8.19397 3.46955ZM7.19397 4.87081V7.482C7.02202 7.62536 6.9126 7.84118 6.9126 8.08256C6.9126 8.5142 7.26251 8.86411 7.69415 8.86411C8.12579 8.86411 8.47571 8.5142 8.47571 8.08256C8.47571 7.84101 8.36613 7.62505 8.19397 7.48169V4.82518L11.8194 8.41143L6.94886 13.0634L2.94629 9.24523L7.19397 4.87081Z" fill="black"/>
</svg>
