<svg width="16" height="16" viewBox="0 0 16 16" fill="none" xmlns="http://www.w3.org/2000/svg">
<path fill-rule="evenodd" clip-rule="evenodd" d="M3.03711 13.9775C2.48482 13.9775 2.03711 13.5298 2.03711 12.9775L2.03711 11C2.03711 10.7239 2.26097 10.5 2.53711 10.5C2.81325 10.5 3.03711 10.7239 3.03711 11L3.03711 12.9775L13.0589 12.9775V11C13.0589 10.7239 13.2828 10.5 13.5589 10.5C13.8351 10.5 14.0589 10.7239 14.0589 11V12.9775C14.0589 13.5298 13.6112 13.9775 13.0589 13.9775L3.03711 13.9775Z" fill="black"/>
<path fill-rule="evenodd" clip-rule="evenodd" d="M11.8536 6.64645C12.0488 6.84171 12.0488 7.15829 11.8536 7.35355L8.35355 10.8536C8.32915 10.878 8.30284 10.8993 8.27512 10.9176C8.08104 11.0458 7.8173 11.0244 7.64645 10.8536L4.14645 7.35355C3.95118 7.15829 3.95118 6.84171 4.14645 6.64645C4.34171 6.45118 4.65829 6.45118 4.85355 6.64645L7.49823 9.29113L7.5 2.49987C7.50007 2.22373 7.72399 1.99993 8.00013 2C8.27627 2.00007 8.50007 2.22399 8.5 2.50013L8.49823 9.29466L11.1464 6.64645C11.3417 6.45118 11.6583 6.45118 11.8536 6.64645Z" fill="black"/>
</svg>
