<svg width="16" height="16" viewBox="0 0 16 16" fill="none" xmlns="http://www.w3.org/2000/svg">
<path fill-rule="evenodd" clip-rule="evenodd" d="M10.002 10.5016C10.0043 10.2253 9.78232 9.99941 9.50605 9.99702L3.99289 9.94935L5.91144 8.0637C6.10838 7.87013 6.11111 7.55357 5.91755 7.35663C5.72399 7.15968 5.40742 7.15695 5.21048 7.35051L2.36537 10.1468L2.3575 10.1544C2.16056 10.348 2.15782 10.6645 2.35139 10.8615L5.15526 13.7143C5.34883 13.9112 5.66539 13.9139 5.86233 13.7204C6.05927 13.5268 6.06201 13.2103 5.86845 13.0133L3.8391 10.9486L9.4974 10.9975C9.77367 10.9999 9.99957 10.7779 10.002 10.5016Z" fill="black"/>
<path fill-rule="evenodd" clip-rule="evenodd" d="M6.00405 5.48237C6.00204 5.7585 6.22426 5.98398 6.5004 5.98599L12.1029 6.02678L10.129 7.97223C9.93228 8.16606 9.92998 8.48263 10.1238 8.67931C10.3176 8.87599 10.6342 8.87829 10.8309 8.68446L13.6798 5.87669C13.8765 5.68286 13.8788 5.36629 13.685 5.16962L13.6787 5.16335L10.8771 2.32065C10.6832 2.12397 10.3667 2.12167 10.17 2.3155C9.97332 2.50933 9.97102 2.8259 10.1649 3.02258L12.1403 5.02702L6.50768 4.98602C6.23154 4.98401 6.00606 5.20623 6.00405 5.48237Z" fill="black"/>
</svg>
