<svg width="16" height="16" viewBox="0 0 16 16" fill="none" xmlns="http://www.w3.org/2000/svg">
<path fill-rule="evenodd" clip-rule="evenodd" d="M8 14C11.3137 14 14 11.3137 14 8C14 4.68629 11.3137 2 8 2C4.68629 2 2 4.68629 2 8C2 11.3137 4.68629 14 8 14ZM8 15C11.866 15 15 11.866 15 8C15 4.13401 11.866 1 8 1C4.13401 1 1 4.13401 1 8C1 11.866 4.13401 15 8 15Z" fill="black"/>
<path d="M8.44727 9.91479H7.2666C7.27083 9.50854 7.3068 9.17635 7.37451 8.91821C7.44645 8.65584 7.56283 8.41675 7.72363 8.20093C7.88444 7.98511 8.09814 7.73966 8.36475 7.4646C8.55941 7.26571 8.73714 7.07951 8.89795 6.90601C9.06299 6.72827 9.19629 6.53784 9.29785 6.33472C9.39941 6.12736 9.4502 5.8798 9.4502 5.59204C9.4502 5.30005 9.3973 5.04826 9.2915 4.83667C9.18994 4.62508 9.0376 4.46216 8.83447 4.3479C8.63558 4.23364 8.38802 4.17651 8.0918 4.17651C7.84635 4.17651 7.61361 4.22095 7.39355 4.30981C7.1735 4.39868 6.99577 4.53621 6.86035 4.72241C6.72493 4.90438 6.65511 5.14347 6.65088 5.4397H5.47656C5.48503 4.96151 5.60352 4.55103 5.83203 4.20825C6.06478 3.86548 6.37793 3.60311 6.77148 3.42114C7.16504 3.23918 7.60514 3.14819 8.0918 3.14819C8.62923 3.14819 9.08626 3.24552 9.46289 3.44019C9.84375 3.63485 10.1336 3.91414 10.3325 4.27808C10.5314 4.63778 10.6309 5.06519 10.6309 5.5603C10.6309 5.94116 10.5526 6.2924 10.396 6.61401C10.2437 6.9314 10.0469 7.22974 9.80566 7.50903C9.56445 7.78833 9.30843 8.05493 9.0376 8.30884C8.80485 8.52466 8.64827 8.76798 8.56787 9.03882C8.48747 9.30965 8.44727 9.60164 8.44727 9.91479ZM7.21582 11.927C7.21582 11.7366 7.27507 11.5758 7.39355 11.4446C7.51204 11.3134 7.68343 11.2478 7.90771 11.2478C8.13623 11.2478 8.30973 11.3134 8.42822 11.4446C8.54671 11.5758 8.60596 11.7366 8.60596 11.927C8.60596 12.109 8.54671 12.2655 8.42822 12.3967C8.30973 12.5279 8.13623 12.5935 7.90771 12.5935C7.68343 12.5935 7.51204 12.5279 7.39355 12.3967C7.27507 12.2655 7.21582 12.109 7.21582 11.927Z" fill="black"/>
</svg>
