<svg width="16" height="16" viewBox="0 0 16 16" fill="none" xmlns="http://www.w3.org/2000/svg">
<path fill-rule="evenodd" clip-rule="evenodd" d="M4.14645 6.35355C3.95118 6.15829 3.95118 5.84171 4.14645 5.64645L7.64615 2.14674C7.64625 2.14664 7.64635 2.14654 7.64645 2.14645C7.84171 1.95118 8.15829 1.95118 8.35355 2.14645L11.8536 5.64645C12.0488 5.84171 12.0488 6.15829 11.8536 6.35355C11.6583 6.54882 11.3417 6.54882 11.1464 6.35355L8.50177 3.70887L8.5 10.5001C8.49993 10.7763 8.27601 11.0001 7.99987 11C7.72373 10.9999 7.49993 10.776 7.5 10.4999L7.50177 3.70534L4.85355 6.35355C4.65829 6.54882 4.34171 6.54882 4.14645 6.35355Z" fill="black"/>
<path fill-rule="evenodd" clip-rule="evenodd" d="M3.03711 13.9775C2.48482 13.9775 2.03711 13.5298 2.03711 12.9775L2.03711 11C2.03711 10.7239 2.26097 10.5 2.53711 10.5C2.81325 10.5 3.03711 10.7239 3.03711 11L3.03711 12.9775L13.0589 12.9775V11C13.0589 10.7239 13.2828 10.5 13.5589 10.5C13.8351 10.5 14.0589 10.7239 14.0589 11V12.9775C14.0589 13.5298 13.6112 13.9775 13.0589 13.9775L3.03711 13.9775Z" fill="black"/>
</svg>
