<svg width="16" height="16" viewBox="0 0 16 16" fill="none" xmlns="http://www.w3.org/2000/svg">
<path fill-rule="evenodd" clip-rule="evenodd" d="M3.5 7C3.5 6.72386 3.72386 6.5 4 6.5L5 6.5C5.27614 6.5 5.5 6.72386 5.5 7C5.5 7.27614 5.27614 7.5 5 7.5L4 7.5C3.72386 7.5 3.5 7.27614 3.5 7Z" fill="black"/>
<path fill-rule="evenodd" clip-rule="evenodd" d="M5 5V3H11V5H5ZM4 5V2.5C4 2.22386 4.22386 2 4.5 2H11.5C11.7761 2 12 2.22386 12 2.5V5H13.5C13.7761 5 14 5.22386 14 5.5V11.5C14 11.7761 13.7761 12 13.5 12H12V13.5C12 13.7761 11.7761 14 11.5 14H4.5C4.22386 14 4 13.7761 4 13.5V12H2.5C2.22386 12 2 11.7761 2 11.5V5.5C2 5.22386 2.22386 5 2.5 5H4ZM11.5 6H4.5H3V11H4V9.5C4 9.22386 4.22386 9 4.5 9H11.5C11.7761 9 12 9.22386 12 9.5V11H13V6H11.5ZM5 13H11V10H5V13Z" fill="black"/>
</svg>
