<svg width="16" height="16" viewBox="0 0 16 16" fill="none" xmlns="http://www.w3.org/2000/svg">
<path fill-rule="evenodd" clip-rule="evenodd" d="M8 14C11.3137 14 14 11.3137 14 8C14 4.68629 11.3137 2 8 2C4.68629 2 2 4.68629 2 8C2 11.3137 4.68629 14 8 14ZM8 15C11.866 15 15 11.866 15 8C15 4.13401 11.866 1 8 1C4.13401 1 1 4.13401 1 8C1 11.866 4.13401 15 8 15Z" fill="black"/>
<path fill-rule="evenodd" clip-rule="evenodd" d="M10.8536 5.85355C11.0488 5.65829 11.0488 5.34171 10.8536 5.14645C10.6583 4.95118 10.3417 4.95118 10.1464 5.14645L8 7.29289L5.85355 5.14645C5.65829 4.95118 5.34171 4.95118 5.14645 5.14645C4.95118 5.34171 4.95118 5.65829 5.14645 5.85355L7.29289 8L5.14645 10.1464C4.95118 10.3417 4.95118 10.6583 5.14645 10.8536C5.34171 11.0488 5.65829 11.0488 5.85355 10.8536L8 8.70711L10.1464 10.8536C10.3417 11.0488 10.6583 11.0488 10.8536 10.8536C11.0488 10.6583 11.0488 10.3417 10.8536 10.1464L8.70711 8L10.8536 5.85355Z" fill="black"/>
</svg>
