<svg width="16" height="16" viewBox="0 0 16 16" fill="none" xmlns="http://www.w3.org/2000/svg">
<path fill-rule="evenodd" clip-rule="evenodd" d="M9.61577 2.64887C10.6219 1.64276 12.2531 1.64276 13.2592 2.64887C14.2653 3.65498 14.2653 5.28621 13.2592 6.29232L12.9074 6.64415L12.9103 6.64709L6.18556 13.3718L2 13.9109L2.53847 9.72475L9.26323 3L9.26394 3.00071L9.61577 2.64887ZM12.5521 5.58521L12.2017 5.93559L9.97251 3.70635L10.3229 3.35598C10.9385 2.74039 11.9365 2.74039 12.5521 3.35598C13.1677 3.97156 13.1677 4.96963 12.5521 5.58521ZM5.7196 12.4236L3.1571 12.7536L3.48678 10.1907L9.26323 4.41421L11.4961 6.64709L5.7196 12.4236Z" fill="black"/>
</svg>
