<svg width="16" height="16" viewBox="0 0 16 16" fill="none" xmlns="http://www.w3.org/2000/svg">
<path fill-rule="evenodd" clip-rule="evenodd" d="M13 14.5C13 14.7761 12.7761 15 12.5 15H11V14H12H13V14.5ZM12 11V13H13V11H12ZM12 10V8H13V10H12ZM12 6V7H13V5.16608C13 5.05826 12.9651 4.95332 12.9006 4.86692L12.6383 4.51561L12 5.05682V6ZM11.2402 4.32033L12.0301 3.70117L11.0907 2.44313L10.3197 3.09297L11.2402 4.32033ZM10.1631 1.20084L10.4844 1.63113L10.0003 1.99995V2.66712L10 2.66667V3H9V2H8V1H9.76248C9.92023 1 10.0687 1.07444 10.1631 1.20084ZM9 5.5V4H10V5H11V6H9.5C9.22386 6 9 5.77614 9 5.5ZM5 14H7V15H5V14ZM4 14V13H3V14.5C3 14.7761 3.22386 15 3.5 15H4V14ZM4 10V12H3V10H4ZM4 9V7H3V9H4ZM4 4V6H3V4H4ZM4 3V2V1H3.5C3.22386 1 3 1.22386 3 1.5V3H4ZM5 1V2H7V1H5ZM8 14V15H10V14H8Z" fill="black"/>
</svg>
