<svg width="16" height="16" viewBox="0 0 16 16" fill="none" xmlns="http://www.w3.org/2000/svg">
<path fill-rule="evenodd" clip-rule="evenodd" d="M10.8377 10.6887C10.5743 10.7714 10.2936 10.6249 10.2109 10.3614C10.1282 10.0979 10.2748 9.8173 10.5382 9.73461L13.2815 8.87354C13.3745 8.84438 13.4695 8.84373 13.5572 8.86666C13.7372 8.89459 13.8953 9.02015 13.956 9.20502L14.8524 11.937C14.9384 12.1994 14.7955 12.4818 14.5332 12.5679C14.2708 12.654 13.9883 12.5111 13.9022 12.2487L13.3873 10.6794C12.9848 11.4835 12.4042 12.1925 11.683 12.7488C10.5986 13.5851 9.26118 14.0262 7.892 13.9989C6.52282 13.9717 5.20398 13.4778 4.15373 12.5989C3.23269 11.8282 2.56664 10.802 2.23579 9.65535C2.15866 9.38805 2.33772 9.12188 2.61054 9.06739C2.88336 9.0129 3.14624 9.19098 3.22787 9.45694C3.51079 10.3787 4.05534 11.2029 4.80029 11.8263C5.67452 12.5578 6.77233 12.969 7.91204 12.9916C9.05176 13.0143 10.1651 12.6472 11.0677 11.951C11.6882 11.4724 12.1836 10.8581 12.5196 10.1608L10.8377 10.6887Z" fill="black"/>
<path fill-rule="evenodd" clip-rule="evenodd" d="M2.45149 7.11053C2.27137 7.08274 2.11299 6.95712 2.05228 6.77209L1.15591 4.04013C1.06983 3.77775 1.21274 3.49527 1.47511 3.40918C1.73749 3.3231 2.01998 3.46601 2.10606 3.72838L2.6211 5.29812C3.02362 4.49385 3.60421 3.78476 4.32554 3.22841C5.40992 2.39205 6.74736 1.95099 8.11654 1.97824C9.48572 2.00549 10.8046 2.4994 11.8548 3.37825C12.7758 4.14897 13.4419 5.17522 13.7728 6.32182C13.8499 6.58912 13.6708 6.85529 13.398 6.90978C13.1252 6.96427 12.8623 6.78619 12.7807 6.52023C12.4978 5.59845 11.9532 4.77427 11.2083 4.1509C10.334 3.41935 9.23621 3.00821 8.0965 2.98553C6.95678 2.96285 5.84349 3.32998 4.94084 4.02618C4.32038 4.50473 3.82502 5.11904 3.48904 5.81624L5.17069 5.28841C5.43416 5.20571 5.71478 5.35225 5.79747 5.61572C5.88017 5.87918 5.73363 6.1598 5.47016 6.2425L2.72687 7.10356C2.63407 7.13269 2.53915 7.13337 2.45149 7.11053Z" fill="black"/>
</svg>
