<svg width="16" height="16" viewBox="0 0 16 16" fill="none" xmlns="http://www.w3.org/2000/svg">
<path fill-rule="evenodd" clip-rule="evenodd" d="M6.99788 1C6.44497 1 5.99674 1.44925 5.99674 2.00343V2.95881H6.99788V2.00343H9.00322L9.00322 2.95881H10.0044V2.00343C10.0044 1.44925 9.55613 1 9.00322 1H6.99788ZM14 3.76173C14 3.87256 13.9104 3.96241 13.7998 3.96241H12.9213L12.0801 14.08C12.0368 14.6001 11.6031 15.0001 11.0824 15.0001H4.91564C4.39496 15.0001 3.9612 14.6001 3.91796 14.08L3.07675 3.96241H2.20023C2.08965 3.96241 2 3.87256 2 3.76173V3.15967C2 3.04883 2.08965 2.95898 2.20023 2.95898H2.99332H13.0047H13.7998C13.9104 2.95898 14 3.04883 14 3.15967V3.76173ZM4.08136 3.96241H11.9167L11.0824 13.9967H4.91564L4.08136 3.96241ZM10.0028 6.51554V11.4425C10.0028 11.7445 9.75857 11.9893 9.45728 11.9893C9.15598 11.9893 8.91173 11.7445 8.91173 11.4425V6.51554C8.91173 6.21356 9.15598 5.96875 9.45728 5.96875C9.75857 5.96875 10.0028 6.21356 10.0028 6.51554ZM7.02593 11.4745V6.48354C7.02593 6.19923 6.79598 5.96875 6.51231 5.96875C6.22865 5.96875 5.9987 6.19923 5.9987 6.48354V11.4745C5.9987 11.7588 6.22865 11.9893 6.51231 11.9893C6.79598 11.9893 7.02593 11.7588 7.02593 11.4745Z" fill="black"/>
</svg>
