<svg width="16" height="16" viewBox="0 0 16 16" fill="none" xmlns="http://www.w3.org/2000/svg">
<path fill-rule="evenodd" clip-rule="evenodd" d="M6.75534 13C6.75534 13.6446 7.27791 14.0002 7.92253 14.0002C8.56715 14.0002 9.08971 13.6446 9.08971 13H10.0897C10.0897 14.1969 9.11943 15.0002 7.92253 15.0002C6.72562 15.0002 5.75534 14.1969 5.75534 13H6.75534Z" fill="black"/>
<path fill-rule="evenodd" clip-rule="evenodd" d="M12.6358 12C12.5294 11.6462 12.4165 11.2562 12.3167 10.8801C12.2339 10.568 12.1575 10.2558 12.1011 9.97642C12.0484 9.71506 11.9996 9.41914 11.9996 9.16667V6C11.9996 5.51276 11.7987 4.46662 11.1774 3.56921C10.5927 2.72468 9.63549 2 7.9996 2C6.34385 2 5.38684 2.70139 4.81114 3.50097C4.19782 4.3528 3.9996 5.35079 3.9996 5.83333V9C3.9996 9.49672 3.84057 10.215 3.68422 10.828C3.58257 11.2266 3.46743 11.6341 3.35927 12H12.6358ZM2.69332 13H13.3059C13.6472 13 13.8896 12.6663 13.7872 12.3408C13.4936 11.4083 12.9996 9.75236 12.9996 9.16667V6C12.9996 4.66667 11.9996 1 7.9996 1C3.9996 1 2.9996 4.5 2.9996 5.83333V9C2.9996 9.70383 2.50423 11.3984 2.2108 12.3404C2.10931 12.6663 2.35204 13 2.69332 13Z" fill="black"/>
</svg>
