<svg width="16" height="16" viewBox="0 0 16 16" fill="none" xmlns="http://www.w3.org/2000/svg">
<path d="M2 13H14V14H2V13Z" fill="black"/>
<path fill-rule="evenodd" clip-rule="evenodd" d="M4 6.62231H5V11H6.3125V6.62231H7.3125V11H8.65625V6.62231H9.65625V11H11V6.68359H12V11H13V12H3V11H4V6.62231Z" fill="black"/>
<path fill-rule="evenodd" clip-rule="evenodd" d="M2.94001 5.67759C2.70509 5.67759 2.51465 5.48715 2.51465 5.25224C2.51465 5.09675 2.59949 4.95365 2.73591 4.87904L7.76103 2.13078C7.91004 2.04928 8.09023 2.049 8.2395 2.13003L13.3041 4.87947C13.441 4.95378 13.5263 5.09704 13.5263 5.2528C13.5263 5.48741 13.3361 5.67759 13.1015 5.67759H2.94001ZM5.18831 4.67759H10.8363L8.00183 3.13886L5.18831 4.67759Z" fill="black"/>
</svg>
