<svg width="16" height="16" viewBox="0 0 16 16" fill="none" xmlns="http://www.w3.org/2000/svg">
<path d="M13 7.50617C13 7.78193 12.7761 8.00548 12.5 8.00548C12.2238 8.00548 12 7.78193 12 7.50617L12 3.50481C12 3.22904 12.2238 3.00549 12.5 3.00549C12.7761 3.00549 13 3.22904 13 3.50481L13 7.50617Z" fill="black"/>
<path d="M8.50067 4.00553C8.22416 4.00553 8 3.78168 8 3.50554C8 3.2294 8.22416 3.00555 8.50067 3.00555L12.5 3.00549C12.7761 3.00549 13 3.22904 13 3.50481C13 3.78095 12.7758 4.00554 12.4993 4.00554L8.50067 4.00553Z" fill="black"/>
<path d="M9.15414 7.54032C8.96229 7.73217 8.65123 7.73217 8.45938 7.54032C8.26753 7.34847 8.26753 7.03741 8.45938 6.84556L11.6523 3.65263C11.8442 3.46078 12.1552 3.46078 12.3471 3.65263C12.5389 3.84448 12.5389 4.15553 12.3471 4.34738L9.15414 7.54032Z" fill="black"/>
<path d="M3 8.49931C3 8.22355 3.22386 8 3.49999 8C3.77613 8 3.99999 8.22355 3.99999 8.49931L3.99999 12.5007C3.99999 12.7764 3.77613 13 3.49999 13C3.22385 13 3 12.7764 3 12.5007L3 8.49931Z" fill="black"/>
<path d="M7.49928 12C7.7758 12 7.99996 12.2239 7.99996 12.5C7.99996 12.7761 7.7758 13 7.49928 13H3.49999C3.22385 13 3 12.7764 3 12.5007C3 12.2245 3.22412 12 3.50063 12L7.49928 12Z" fill="black"/>
<path d="M6.84582 8.46518C7.03767 8.27332 7.34872 8.27332 7.54058 8.46518C7.73243 8.65703 7.73243 8.96808 7.54058 9.15993L4.34764 12.3529C4.15579 12.5447 3.84474 12.5447 3.65288 12.3529C3.46103 12.161 3.46103 11.85 3.65289 11.6581L6.84582 8.46518Z" fill="black"/>
</svg>
