<svg width="16" height="16" viewBox="0 0 16 16" fill="none" xmlns="http://www.w3.org/2000/svg">
<path fill-rule="evenodd" clip-rule="evenodd" d="M14 4H2V12H14L14 4ZM2 3H14C14.5523 3 15 3.44772 15 4V12C15 12.5523 14.5523 13 14 13H2C1.44772 13 1 12.5523 1 12V4C1 3.44772 1.44772 3 2 3Z" fill="black"/>
<path d="M10.6201 7.74955C10.7998 7.86813 10.7998 8.13179 10.6201 8.25036L6.21483 11.1571C6.01537 11.2887 5.7496 11.1457 5.7496 10.9067L5.7496 5.09322C5.7496 4.85426 6.01537 4.71121 6.21483 4.84282L10.6201 7.74955Z" fill="black"/>
</svg>
