<svg width="16" height="16" viewBox="0 0 16 16" fill="none" xmlns="http://www.w3.org/2000/svg">
<mask id="path-1-inside-1_617_749" fill="white">
<path fill-rule="evenodd" clip-rule="evenodd" d="M9.99928 13H13.3059C13.6472 13 13.8896 12.6663 13.7872 12.3408C13.4936 11.4083 12.9996 9.75236 12.9996 9.16667V6C12.9996 4.66667 11.9996 1 7.9996 1C3.9996 1 2.9996 4.5 2.9996 5.83333V9C2.9996 9.70383 2.50423 11.3984 2.2108 12.3404C2.10931 12.6663 2.35204 13 2.69332 13H5.99928C5.99928 14.1046 6.89471 15 7.99928 15C9.10385 15 9.99928 14.1046 9.99928 13Z"/>
</mask>
<path fill-rule="evenodd" clip-rule="evenodd" d="M9.99928 13H13.3059C13.6472 13 13.8896 12.6663 13.7872 12.3408C13.4936 11.4083 12.9996 9.75236 12.9996 9.16667V6C12.9996 4.66667 11.9996 1 7.9996 1C3.9996 1 2.9996 4.5 2.9996 5.83333V9C2.9996 9.70383 2.50423 11.3984 2.2108 12.3404C2.10931 12.6663 2.35204 13 2.69332 13H5.99928C5.99928 14.1046 6.89471 15 7.99928 15C9.10385 15 9.99928 14.1046 9.99928 13Z" fill="black"/>
<path d="M9.99928 13V12H8.99928V13H9.99928ZM13.7872 12.3408L14.741 12.0405H14.741L13.7872 12.3408ZM2.9996 9H1.9996V9L2.9996 9ZM2.2108 12.3404L3.16556 12.6378H3.16556L2.2108 12.3404ZM5.99928 13H6.99928V12H5.99928V13ZM13.3059 12H9.99928V14H13.3059V12ZM12.8333 12.6411C12.735 12.3288 12.9649 12 13.3059 12V14C14.3295 14 15.0443 13.0039 14.741 12.0405L12.8333 12.6411ZM11.9996 9.16667C11.9996 9.41914 12.0484 9.71506 12.1011 9.97642C12.1575 10.2558 12.2339 10.568 12.3167 10.8801C12.4826 11.5053 12.6847 12.1689 12.8333 12.6411L14.741 12.0405C14.5961 11.5802 14.4044 10.9496 14.2498 10.3672C14.1725 10.0756 14.107 9.80574 14.0616 9.58074C14.0126 9.33775 13.9996 9.20704 13.9996 9.16667H11.9996ZM11.9996 6V9.16667H13.9996V6H11.9996ZM7.9996 2C9.63549 2 10.5927 2.72468 11.1774 3.56921C11.7987 4.46662 11.9996 5.51276 11.9996 6H13.9996C13.9996 5.15391 13.7005 3.70005 12.8218 2.43079C11.9065 1.10865 10.3637 0 7.9996 0V2ZM3.9996 5.83333C3.9996 5.35079 4.19782 4.3528 4.81114 3.50097C5.38684 2.70139 6.34385 2 7.9996 2V0C5.65536 0 4.11237 1.04861 3.18807 2.33236C2.30138 3.56387 1.9996 4.98255 1.9996 5.83333H3.9996ZM3.9996 9V5.83333H1.9996V9H3.9996ZM3.16556 12.6378C3.31455 12.1595 3.51752 11.4816 3.68422 10.828C3.84057 10.215 3.9996 9.49672 3.9996 9L1.9996 9C1.9996 9.20711 1.91096 9.688 1.74626 10.3337C1.59192 10.9389 1.40048 11.5793 1.25605 12.043L3.16556 12.6378ZM2.69332 12C3.03471 12 3.26207 12.328 3.16556 12.6378L1.25605 12.043C0.956544 13.0046 1.66936 14 2.69332 14V12ZM5.99928 12H2.69332V14H5.99928V12ZM4.99928 13C4.99928 14.6569 6.34243 16 7.99928 16V14C7.447 14 6.99928 13.5523 6.99928 13H4.99928ZM7.99928 16C9.65614 16 10.9993 14.6569 10.9993 13H8.99928C8.99928 13.5523 8.55157 14 7.99928 14V16Z" fill="black" mask="url(#path-1-inside-1_617_749)"/>
</svg>
