<svg width="16" height="16" viewBox="0 0 16 16" fill="none" xmlns="http://www.w3.org/2000/svg">
<path fill-rule="evenodd" clip-rule="evenodd" d="M3.17649 12.1221C2.97639 12.3227 2.97639 12.648 3.17649 12.8486C3.3766 13.0492 3.70104 13.0492 3.90115 12.8486L7.99986 8.73938L12.0992 12.8492C12.2993 13.0498 12.6237 13.0498 12.8238 12.8492C13.0239 12.6485 13.0239 12.3233 12.8238 12.1227L8.72451 8.01287L12.8502 3.87661C13.0503 3.67599 13.0503 3.35072 12.8502 3.1501C12.6501 2.94948 12.3257 2.94948 12.1256 3.1501L7.99986 7.28637L3.87474 3.15069C3.67463 2.95007 3.35019 2.95007 3.15008 3.15069C2.94997 3.35131 2.94997 3.67658 3.15008 3.8772L7.2752 8.01287L3.17649 12.1221Z" fill="black"/>
</svg>
