<svg width="16" height="16" viewBox="0 0 16 16" fill="none" xmlns="http://www.w3.org/2000/svg">
<path fill-rule="evenodd" clip-rule="evenodd" d="M8.73716 2.06427C8.34082 1.6319 7.65919 1.6319 7.26285 2.06427L2.13143 7.66218C1.94483 7.86574 1.95858 8.18202 2.16214 8.36862C2.3657 8.55522 2.68198 8.54147 2.86858 8.33791L3 8.19454V13C3 13.5523 3.44772 14 4 14H12C12.5523 14 13 13.5523 13 13V8.19454L13.1314 8.33791C13.318 8.54147 13.6343 8.55522 13.8379 8.36862C14.0414 8.18202 14.0552 7.86574 13.8686 7.66218L8.73716 2.06427ZM12 7.10363L8 2.73999L4 7.10363V13H12V7.10363Z" fill="black"/>
</svg>
