<svg width="16" height="16" viewBox="0 0 16 16" fill="none" xmlns="http://www.w3.org/2000/svg">
<path fill-rule="evenodd" clip-rule="evenodd" d="M6 6V13H13V6H6ZM5.5 5C5.22386 5 5 5.22386 5 5.5V13.5C5 13.7761 5.22386 14 5.5 14H13.5C13.7761 14 14 13.7761 14 13.5V5.5C14 5.22386 13.7761 5 13.5 5H5.5Z" fill="black"/>
<path fill-rule="evenodd" clip-rule="evenodd" d="M3 10V3H10V5H11V2.5C11 2.22386 10.7761 2 10.5 2H2.5C2.22386 2 2 2.22386 2 2.5V10.5C2 10.7761 2.22386 11 2.5 11H5V10H3Z" fill="black"/>
</svg>
