<svg width="16" height="16" viewBox="0 0 16 16" fill="none" xmlns="http://www.w3.org/2000/svg">
<path fill-rule="evenodd" clip-rule="evenodd" d="M8.32617 3H3V3.7167L6.66469 8.23211C6.88161 8.49939 7 8.83314 7 9.17737V13H9V9.85133H10V13.5C10 13.7761 9.77614 14 9.5 14H6.5C6.22386 14 6 13.7761 6 13.5V9.17737C6 9.06262 5.96054 8.95137 5.88823 8.86228L2.11177 4.20915C2.03946 4.12005 2 4.0088 2 3.89406V2.5C2 2.22386 2.22386 2 2.5 2H13.5C13.7761 2 14 2.22386 14 2.5V2.99316H8.32617V3Z" fill="black"/>
<path fill-rule="evenodd" clip-rule="evenodd" d="M14.8897 4.35355C15.0849 4.15829 15.0849 3.84171 14.8897 3.64645C14.6944 3.45118 14.3778 3.45118 14.1826 3.64645L12.0361 5.79289L9.88969 3.64645C9.69442 3.45118 9.37784 3.45118 9.18258 3.64645C8.98732 3.84171 8.98732 4.15829 9.18258 4.35355L11.329 6.5L9.18258 8.64645C8.98732 8.84171 8.98732 9.15829 9.18258 9.35355C9.37784 9.54882 9.69442 9.54882 9.88969 9.35355L12.0361 7.20711L14.1826 9.35355C14.3778 9.54882 14.6944 9.54882 14.8897 9.35355C15.0849 9.15829 15.0849 8.84171 14.8897 8.64645L12.7432 6.5L14.8897 4.35355Z" fill="black"/>
</svg>
