<svg width="16" height="16" viewBox="0 0 16 16" fill="none" xmlns="http://www.w3.org/2000/svg">
<path fill-rule="evenodd" clip-rule="evenodd" d="M7.99127 3.16676L2.47552 6.49999L7.99127 9.83323L13.5658 6.49999L7.99127 3.16676ZM8.2465 2.15424L14.7967 6.07086C15.1212 6.26491 15.1212 6.73507 14.7967 6.92913L14.7439 6.96067C14.7449 6.97365 14.7454 6.98676 14.7454 6.99999V9.99999C14.7454 10.2761 14.5216 10.5 14.2454 10.5C13.9693 10.5 13.7454 10.2761 13.7454 9.99999V7.5577L12.4996 8.30265V10.9753C12.4996 11.3319 12.3096 11.6616 12.0011 11.8405L8.47916 13.8821C8.16741 14.0628 7.78254 14.0618 7.47172 13.8795L3.99366 11.8396C3.6876 11.6601 3.49958 11.3318 3.49958 10.977V8.28726L1.25019 6.92792C0.928323 6.73342 0.928324 6.26657 1.25019 6.07206L7.7313 2.15544C7.88959 2.05979 8.08776 2.05932 8.2465 2.15424ZM8.2465 10.8457L11.4996 8.90059V10.9753L7.97764 13.0169L4.49958 10.977V8.89157L7.7313 10.8445C7.88959 10.9402 8.08776 10.9407 8.2465 10.8457Z" fill="black"/>
</svg>
