<svg width="16" height="16" viewBox="0 0 16 16" fill="none" xmlns="http://www.w3.org/2000/svg">
<path fill-rule="evenodd" clip-rule="evenodd" d="M12.2935 3H9.50009C9.22395 3 9.00009 2.77614 9.00009 2.5C9.00009 2.22386 9.22395 2 9.50009 2H13.0001C13.5524 2 14.0001 2.44772 14.0001 3V6.5C14.0001 6.77614 13.7762 7 13.5001 7C13.224 7 13.0001 6.77614 13.0001 6.5V3.70766L8.3328 8.37495C8.14936 8.5584 7.84235 8.54882 7.64709 8.35355C7.45183 8.15829 7.44225 7.85129 7.62569 7.66785L12.2935 3Z" fill="black"/>
<path fill-rule="evenodd" clip-rule="evenodd" d="M3 13V3H7V2H2.5C2.22386 2 2 2.22386 2 2.5V13.5C2 13.7761 2.22386 14 2.5 14H13.5C13.7761 14 14 13.7761 14 13.5L14 9H13V13H3Z" fill="black"/>
</svg>
