<svg width="16" height="16" viewBox="0 0 16 16" fill="none" xmlns="http://www.w3.org/2000/svg">
<path fill-rule="evenodd" clip-rule="evenodd" d="M3.07704 4.02771L2.74192 6.37612L1.75195 6.23485L2.10069 3.79103C2.16319 3.35306 2.53826 3.02771 2.98066 3.02771H6.99845C7.30094 3.02771 7.58266 3.18153 7.74621 3.43599L8.1028 3.99079H13.3649C13.8559 3.99079 14.2538 4.38876 14.2538 4.87968V6.30549H13.2538V4.99079H8.04213C7.73965 4.99079 7.45793 4.83696 7.29438 4.58251L6.93779 4.02771H3.07704Z" fill="black"/>
<path fill-rule="evenodd" clip-rule="evenodd" d="M2.10183 7L2.68516 13H13.3146L13.898 7H2.10183ZM1.85695 6C1.39765 6 1.03838 6.3959 1.08282 6.85304L1.70937 13.2975C1.74811 13.696 2.08309 14 2.48349 14H13.5163C13.9167 14 14.2517 13.696 14.2904 13.2975L14.917 6.85304C14.9614 6.3959 14.6021 6 14.1428 6H1.85695Z" fill="black"/>
<path fill-rule="evenodd" clip-rule="evenodd" d="M8.25 2.90027C8.25 2.62413 8.47386 2.40027 8.75 2.40027H13.2539C13.53 2.40027 13.7539 2.62413 13.7539 2.90027C13.7539 3.17641 13.53 3.40027 13.2539 3.40027H8.75C8.47386 3.40027 8.25 3.17641 8.25 2.90027Z" fill="black"/>
</svg>
