<svg width="16" height="16" viewBox="0 0 16 16" fill="none" xmlns="http://www.w3.org/2000/svg">
<path fill-rule="evenodd" clip-rule="evenodd" d="M3 3H13V3.64922L9.3287 8.23834C9.3287 8.23835 9.3287 8.23835 9.3287 8.23835C9.11592 8.50432 9 8.83479 9 9.17539V13H7V9.17737C7 8.83314 6.88161 8.49939 6.66469 8.23211L3 3.7167V3ZM10.1096 8.86304C10.0386 8.9517 10 9.06185 10 9.17539V13.5C10 13.7761 9.77614 14 9.5 14H6.5C6.22386 14 6 13.7761 6 13.5V9.17737C6 9.06262 5.96054 8.95137 5.88823 8.86228L2.11177 4.20915C2.03946 4.12005 2 4.0088 2 3.89406V2.5C2 2.22386 2.22386 2 2.5 2H13.5C13.7761 2 14 2.22386 14 2.5V3.82461C14 3.93815 13.9614 4.0483 13.8904 4.13696L10.1096 8.86304ZM13.1091 3.51278L13.1096 3.51226L13.5 3.82461L13.1096 3.51226C13.1094 3.51243 13.1093 3.51261 13.1091 3.51278Z" fill="black"/>
</svg>
