<svg width="16" height="16" viewBox="0 0 16 16" fill="none" xmlns="http://www.w3.org/2000/svg">
<path fill-rule="evenodd" clip-rule="evenodd" d="M8.61663 11.327C8.3499 11.4385 8.05714 11.5 7.75 11.5C6.50736 11.5 5.5 10.4926 5.5 9.25C5.5 8.00736 6.50736 7 7.75 7C8.99264 7 10 8.00736 10 9.25C10 9.82419 9.78492 10.3481 9.43092 10.7457L10.4157 12.2229C10.5689 12.4526 10.5068 12.7631 10.277 12.9162C10.0473 13.0694 9.73682 13.0073 9.58365 12.7776L8.61663 11.327ZM9 9.25C9 9.94036 8.44036 10.5 7.75 10.5C7.05964 10.5 6.5 9.94036 6.5 9.25C6.5 8.55964 7.05964 8 7.75 8C8.44036 8 9 8.55964 9 9.25Z" fill="black"/>
<path fill-rule="evenodd" clip-rule="evenodd" d="M13 14.5C13 14.7761 12.7761 15 12.5 15H3.5C3.22386 15 3 14.7761 3 14.5V1.5C3 1.22386 3.22386 1 3.5 1H9.76248C9.92023 1 10.0687 1.07444 10.1631 1.20084L12.9006 4.86692C12.9651 4.95332 13 5.05826 13 5.16608V14.5ZM12 6H9.5C9.22386 6 9 5.77614 9 5.5V2H4V14H12V6ZM11.752 5L10 2.65377V5H11.752Z" fill="black"/>
</svg>
