<svg width="16" height="16" viewBox="0 0 16 16" fill="none" xmlns="http://www.w3.org/2000/svg">
<path fill-rule="evenodd" clip-rule="evenodd" d="M4 2.54545C4 2.24421 3.77614 2 3.5 2C3.22386 2 3 2.24421 3 2.54545V6H2.5C2.22386 6 2 6.22386 2 6.5V7.5C2 7.77614 2.22386 8 2.5 8H3V13.4545C3 13.7558 3.22386 14 3.5 14C3.77614 14 4 13.7558 4 13.4545V8H4.5C4.77614 8 5 7.77614 5 7.5V6.5C5 6.22386 4.77614 6 4.5 6H4V2.54545Z" fill="black"/>
<path fill-rule="evenodd" clip-rule="evenodd" d="M8.5 2.54545C8.5 2.24421 8.27614 2 8 2C7.72386 2 7.5 2.24421 7.5 2.54545V9H7C6.72386 9 6.5 9.22386 6.5 9.5V10.5C6.5 10.7761 6.72386 11 7 11H7.5V13.4545C7.5 13.7558 7.72386 14 8 14C8.27614 14 8.5 13.7558 8.5 13.4545V11H9C9.27614 11 9.5 10.7761 9.5 10.5V9.5C9.5 9.22386 9.27614 9 9 9H8.5V2.54545Z" fill="black"/>
<path fill-rule="evenodd" clip-rule="evenodd" d="M13 2.54545C13 2.24421 12.7761 2 12.5 2C12.2239 2 12 2.24421 12 2.54545V4H11.5C11.2239 4 11 4.22386 11 4.5V5.5C11 5.77614 11.2239 6 11.5 6H12V13.4545C12 13.7558 12.2239 14 12.5 14C12.7761 14 13 13.7558 13 13.4545V6H13.5C13.7761 6 14 5.77614 14 5.5V4.5C14 4.22386 13.7761 4 13.5 4H13V2.54545Z" fill="black"/>
</svg>
