<svg width="16" height="16" viewBox="0 0 16 16" fill="none" xmlns="http://www.w3.org/2000/svg">
<path fill-rule="evenodd" clip-rule="evenodd" d="M8 14C11.3137 14 14 11.3137 14 8C14 4.68629 11.3137 2 8 2C4.68629 2 2 4.68629 2 8C2 11.3137 4.68629 14 8 14ZM8 15C11.866 15 15 11.866 15 8C15 4.13401 11.866 1 8 1C4.13401 1 1 4.13401 1 8C1 11.866 4.13401 15 8 15Z" fill="black"/>
<path d="M7.33398 7.33301H8.66732V10.9997H7.33398V7.33301Z" fill="black"/>
<path d="M7.99935 6.33366C8.45959 6.33366 8.83268 5.96056 8.83268 5.50033C8.83268 5.04009 8.45959 4.66699 7.99935 4.66699C7.53911 4.66699 7.16602 5.04009 7.16602 5.50033C7.16602 5.96056 7.53911 6.33366 7.99935 6.33366Z" fill="black"/>
</svg>
