<svg width="16" height="16" viewBox="0 0 16 16" fill="none" xmlns="http://www.w3.org/2000/svg">
<path fill-rule="evenodd" clip-rule="evenodd" d="M8 15C11.866 15 15 11.866 15 8C15 4.13401 11.866 1 8 1C4.13401 1 1 4.13401 1 8C1 11.866 4.13401 15 8 15ZM10.8983 5.40472C11.0604 5.18118 11.373 5.1314 11.5966 5.29353C11.8201 5.45566 11.8699 5.7683 11.7078 5.99184L8.1376 10.9142C8.03498 11.0557 7.87204 11.1276 7.70956 11.1202C7.55973 11.1166 7.41312 11.0461 7.31769 10.9158L5.24906 8.09273C5.08585 7.86999 5.1341 7.55711 5.35685 7.39389C5.57959 7.23067 5.89247 7.27893 6.05569 7.50167L7.72503 9.77984L10.8983 5.40472Z" fill="black"/>
</svg>
