<svg width="16" height="16" viewBox="0 0 16 16" fill="none" xmlns="http://www.w3.org/2000/svg">
<path fill-rule="evenodd" clip-rule="evenodd" d="M5.00195 8C5.00195 7.72386 5.22581 7.5 5.50195 7.5H10.502C10.7781 7.5 11.002 7.72386 11.002 8C11.002 8.27614 10.7781 8.5 10.502 8.5H5.50195C5.22581 8.5 5.00195 8.27614 5.00195 8Z" fill="black"/>
<path fill-rule="evenodd" clip-rule="evenodd" d="M9.00034 5H11C12.6569 5 14 6.34315 14 8C14 8.76835 13.7111 9.46924 13.2361 10H14.4649C14.8052 9.41165 15 8.72857 15 8C15 5.79086 13.2091 4 11 4H9.00034V5ZM7.00034 5V4H5C2.79086 4 1 5.79086 1 8C1 10.2091 2.79086 12 5 12L7.00034 12V11H5C3.34315 11 2 9.65685 2 8C2 6.34315 3.34315 5 5 5H7.00034Z" fill="black"/>
<path fill-rule="evenodd" clip-rule="evenodd" d="M11.5098 14.5C11.5098 14.7762 11.7336 15 12.0098 15C12.2859 15 12.5098 14.7762 12.5098 14.5V12.502H14.5C14.7761 12.502 15 12.2781 15 12.002C15 11.7258 14.7761 11.502 14.5 11.502H12.5098V9.49988C12.5098 9.22374 12.2859 8.99988 12.0098 8.99988C11.7336 8.99988 11.5098 9.22374 11.5098 9.49988V11.502H9.5C9.22386 11.502 9 11.7258 9 12.002C9 12.2781 9.22386 12.502 9.5 12.502H11.5098V14.5Z" fill="black"/>
</svg>
