<svg width="16" height="16" viewBox="0 0 16 16" fill="none" xmlns="http://www.w3.org/2000/svg">
<path fill-rule="evenodd" clip-rule="evenodd" d="M13 14.5C13 14.7761 12.7761 15 12.5 15H11V14H12H13V14.5ZM12 11V13H13V11H12ZM12 10V8H13V10H12ZM12 6V7H13V5.16608C13 5.05826 12.9651 4.95332 12.9006 4.86692L12.6383 4.51561L12 5.05682V6ZM11.2402 4.32033L12.0301 3.70117L11.0907 2.44313L10.3197 3.09297L11.2402 4.32033ZM10.1631 1.20084L10.4844 1.63113L10.0003 1.99995V2.66712L10 2.66667V3H9V2H8V1H9.76248C9.92023 1 10.0687 1.07444 10.1631 1.20084ZM9 5.5V4H10V5H11V6H9.5C9.22386 6 9 5.77614 9 5.5ZM5 14H7V15H5V14ZM4 14V13H3V14.5C3 14.7761 3.22386 15 3.5 15H4V14ZM4 10V12H3V10H4ZM4 9V7H3V9H4ZM4 4V6H3V4H4ZM4 3V2V1H3.5C3.22386 1 3 1.22386 3 1.5V3H4ZM5 1V2H7V1H5ZM8 14V15H10V14H8Z" fill="black"/>
<path fill-rule="evenodd" clip-rule="evenodd" d="M8.61663 11.327C8.3499 11.4385 8.05714 11.5 7.75 11.5C6.50736 11.5 5.5 10.4926 5.5 9.25C5.5 8.00736 6.50736 7 7.75 7C8.99264 7 10 8.00736 10 9.25C10 9.82419 9.78492 10.3481 9.43092 10.7457L10.4157 12.2229C10.5689 12.4526 10.5068 12.7631 10.277 12.9162C10.0473 13.0694 9.73682 13.0073 9.58365 12.7776L8.61663 11.327ZM9 9.25C9 9.94036 8.44036 10.5 7.75 10.5C7.05964 10.5 6.5 9.94036 6.5 9.25C6.5 8.55964 7.05964 8 7.75 8C8.44036 8 9 8.55964 9 9.25Z" fill="black"/>
</svg>
