<svg width="16" height="16" viewBox="0 0 16 16" fill="none" xmlns="http://www.w3.org/2000/svg">
<path fill-rule="evenodd" clip-rule="evenodd" d="M3.64645 3.64645C3.84171 3.45118 4.15829 3.45118 4.35355 3.64645L5.35355 4.64645C5.54882 4.84171 5.54882 5.15829 5.35355 5.35355C5.15829 5.54882 4.84171 5.54882 4.64645 5.35355L3.64645 4.35355C3.45118 4.15829 3.45118 3.84171 3.64645 3.64645Z" fill="black"/>
<path fill-rule="evenodd" clip-rule="evenodd" d="M12.3536 3.64645C12.5488 3.84171 12.5488 4.15829 12.3536 4.35355L11.3536 5.35355C11.1583 5.54882 10.8417 5.54882 10.6464 5.35355C10.4512 5.15829 10.4512 4.84171 10.6464 4.64645L11.6464 3.64645C11.8417 3.45118 12.1583 3.45118 12.3536 3.64645Z" fill="black"/>
<path fill-rule="evenodd" clip-rule="evenodd" d="M8 2C8.27614 2 8.5 2.22386 8.5 2.5V4C8.5 4.27614 8.27614 4.5 8 4.5C7.72386 4.5 7.5 4.27614 7.5 4V2.5C7.5 2.22386 7.72386 2 8 2Z" fill="black"/>
<path fill-rule="evenodd" clip-rule="evenodd" d="M8 11.5C8.27614 11.5 8.5 11.7239 8.5 12V13.5C8.5 13.7761 8.27614 14 8 14C7.72386 14 7.5 13.7761 7.5 13.5V12C7.5 11.7239 7.72386 11.5 8 11.5Z" fill="black"/>
<path fill-rule="evenodd" clip-rule="evenodd" d="M2 8C2 7.72386 2.22386 7.5 2.5 7.5H4C4.27614 7.5 4.5 7.72386 4.5 8C4.5 8.27614 4.27614 8.5 4 8.5H2.5C2.22386 8.5 2 8.27614 2 8Z" fill="black"/>
<path fill-rule="evenodd" clip-rule="evenodd" d="M11.5 8C11.5 7.72386 11.7239 7.5 12 7.5H13.5C13.7761 7.5 14 7.72386 14 8C14 8.27614 13.7761 8.5 13.5 8.5H12C11.7239 8.5 11.5 8.27614 11.5 8Z" fill="black"/>
<path fill-rule="evenodd" clip-rule="evenodd" d="M8 10C9.10457 10 10 9.10457 10 8C10 6.89543 9.10457 6 8 6C6.89543 6 6 6.89543 6 8C6 9.10457 6.89543 10 8 10ZM8 11C9.65685 11 11 9.65685 11 8C11 6.34315 9.65685 5 8 5C6.34315 5 5 6.34315 5 8C5 9.65685 6.34315 11 8 11Z" fill="black"/>
<path fill-rule="evenodd" clip-rule="evenodd" d="M5.35355 10.6464C5.54882 10.8417 5.54882 11.1583 5.35355 11.3536L4.35355 12.3536C4.15829 12.5488 3.84171 12.5488 3.64645 12.3536C3.45118 12.1583 3.45118 11.8417 3.64645 11.6464L4.64645 10.6464C4.84171 10.4512 5.15829 10.4512 5.35355 10.6464Z" fill="black"/>
<path fill-rule="evenodd" clip-rule="evenodd" d="M10.6464 10.6464C10.8417 10.4512 11.1583 10.4512 11.3536 10.6464L12.3536 11.6464C12.5488 11.8417 12.5488 12.1583 12.3536 12.3536C12.1583 12.5488 11.8417 12.5488 11.6464 12.3536L10.6464 11.3536C10.4512 11.1583 10.4512 10.8417 10.6464 10.6464Z" fill="black"/>
</svg>
