<svg width="16" height="16" viewBox="0 0 16 16" fill="none" xmlns="http://www.w3.org/2000/svg">
<path fill-rule="evenodd" clip-rule="evenodd" d="M10.1827 5.67806L14.0798 6.22554C14.3484 6.26412 14.5357 6.50447 14.4943 6.76412C14.4789 6.86798 14.4283 6.96293 14.3515 7.03563L11.5319 9.69291L12.198 13.4452C12.2441 13.7033 12.0645 13.9481 11.7974 13.9926C11.6915 14.0104 11.581 13.9941 11.4858 13.9452L8.00003 12.1736L4.51424 13.9452C4.4332 13.9865 4.3418 14.0051 4.25039 13.9988C4.15898 13.9925 4.07123 13.9616 3.99708 13.9095C3.92293 13.8575 3.86536 13.7864 3.83088 13.7043C3.79641 13.6222 3.78642 13.5324 3.80204 13.4452L4.46819 9.69291L1.64856 7.03563C1.55519 6.94766 1.50177 6.82745 1.50004 6.70142C1.49832 6.5754 1.54842 6.45386 1.63935 6.36352C1.71456 6.28934 1.81279 6.24038 1.92024 6.22554L5.81738 5.67806L7.55951 2.2641C7.68077 2.02968 7.97547 1.93324 8.21799 2.04897C8.31469 2.09496 8.39297 2.17063 8.44055 2.2641L10.1827 5.67806Z" fill="black"/>
</svg>
