<svg width="16" height="16" viewBox="0 0 16 16" fill="none" xmlns="http://www.w3.org/2000/svg">
<path d="M11.984 11.5C11.984 11.7761 11.7604 12 11.4847 12C11.2089 12 10.9854 11.7761 10.9854 11.5C10.9854 11.2239 11.2089 11 11.4847 11C11.7604 11 11.984 11.2239 11.984 11.5Z" fill="black"/>
<path fill-rule="evenodd" clip-rule="evenodd" d="M4.49346 4.75C4.76923 4.75 4.99278 4.97386 4.99278 5.25V6.25C4.99278 6.52614 4.76923 6.75 4.49346 6.75C4.21769 6.75 3.99414 6.52614 3.99414 6.25V5.25C3.99414 4.97386 4.21769 4.75 4.49346 4.75Z" fill="black"/>
<path fill-rule="evenodd" clip-rule="evenodd" d="M2.99669 9.5H8.98756V13C8.98756 13.5523 9.43467 14 9.9862 14H12.983C13.5346 14 13.9817 13.5523 13.9817 13V7C13.9817 6.44772 13.5346 6 12.983 6H11.9845V3C11.9845 2.44772 11.5374 2 10.9858 2H2.99669C2.44515 2 1.99805 2.44772 1.99805 3V8.5C1.99805 9.05228 2.44515 9.5 2.99669 9.5ZM10.9858 3H2.99669V8.5L8.98756 8.5V7C8.98756 6.44772 9.43467 6 9.9862 6H10.9858V3ZM12.983 7H12.9821H11.9845H10.9858H9.9862V8.5V9.5V11V13H12.983V7Z" fill="black"/>
</svg>
