<svg width="16" height="16" viewBox="0 0 16 16" fill="none" xmlns="http://www.w3.org/2000/svg">
<path fill-rule="evenodd" clip-rule="evenodd" d="M12.4828 2.71156C12.4828 2.71157 12.4828 2.71155 12.4828 2.71156L12.4828 2.71372L12.4827 2.72173L12.4821 2.75475C12.4815 2.78411 12.4805 2.82783 12.4789 2.88419C12.4757 2.99693 12.4701 3.16004 12.4605 3.35959C12.4412 3.75932 12.4058 4.30235 12.3416 4.87836C12.2772 5.45644 12.1851 6.05651 12.0548 6.57417C11.9199 7.11012 11.7606 7.48743 11.6005 7.67918C11.2567 8.09073 10.6638 8.29725 9.87139 8.37655C9.31053 8.43267 8.73334 8.42026 8.16672 8.40808C7.93009 8.40299 7.69531 8.39794 7.46433 8.39794C6.66312 8.39794 5.95731 8.4312 5.30402 8.60405C4.63611 8.78077 4.0433 9.09737 3.44932 9.63194C2.76035 10.252 2.5523 11.2514 2.4882 11.9796C2.45465 12.3607 2.45749 12.7068 2.46847 12.957C2.47399 13.0826 2.48161 13.1853 2.48799 13.2577C2.49118 13.2939 2.49407 13.3226 2.49623 13.3429L2.49889 13.367L2.49972 13.3741L2.5 13.3763L2.50013 13.3775C2.50015 13.3776 2.50017 13.3777 2.99571 13.3164L2.50013 13.3775C2.53399 13.6515 2.78332 13.8465 3.057 13.8126C3.33052 13.7787 3.52488 13.5293 3.49132 13.2555L3.49094 13.2522L3.48922 13.2367C3.48767 13.2222 3.48539 13.1996 3.48277 13.1698C3.47752 13.1103 3.47095 13.0223 3.46615 12.9131C3.45651 12.6936 3.45429 12.3933 3.48298 12.0674C3.54336 11.3816 3.729 10.7248 4.11687 10.3757C4.59972 9.94114 5.05294 9.7048 5.55914 9.57087C6.07996 9.43307 6.67635 9.39794 7.46433 9.39794C7.65224 9.39794 7.86024 9.40239 8.08086 9.4071C8.66852 9.41966 9.34566 9.43413 9.97068 9.37159C10.833 9.2853 11.7634 9.04283 12.3665 8.32073C12.6798 7.94565 12.882 7.37928 13.0232 6.81856C13.1689 6.23954 13.2672 5.58994 13.3341 4.98921C13.4013 4.3864 13.438 3.82146 13.458 3.40793C13.468 3.20086 13.4738 3.03101 13.4772 2.91245C13.4788 2.85316 13.4799 2.80665 13.4805 2.77469L13.4812 2.73785L13.4814 2.72801L13.4814 2.72426C13.4814 2.72418 13.4814 2.72411 12.9821 2.71785L13.4814 2.72426C13.4849 2.44814 13.2641 2.22135 12.9884 2.21789C12.7126 2.21444 12.4863 2.43547 12.4828 2.71156Z" fill="black"/>
</svg>
