<svg width="16" height="16" viewBox="0 0 16 16" fill="none" xmlns="http://www.w3.org/2000/svg">
<path fill-rule="evenodd" clip-rule="evenodd" d="M12.198 13.4452L11.5319 9.69291L14.3515 7.03563C14.4283 6.96293 14.4789 6.86798 14.4943 6.76412C14.5357 6.50447 14.3484 6.26412 14.0798 6.22554L10.1827 5.67806L8.44055 2.2641C8.39297 2.17063 8.31469 2.09496 8.21799 2.04897C7.97547 1.93324 7.68077 2.02968 7.55951 2.2641L5.81738 5.67806L1.92024 6.22554C1.81279 6.24038 1.71456 6.28934 1.63935 6.36352C1.54842 6.45386 1.49832 6.5754 1.50004 6.70142C1.50177 6.82745 1.55519 6.94766 1.64856 7.03563L4.46819 9.69291L3.80204 13.4452C3.78642 13.5324 3.79641 13.6222 3.83088 13.7043C3.86536 13.7864 3.92293 13.8575 3.99708 13.9095C4.07123 13.9616 4.15898 13.9925 4.25039 13.9988C4.3418 14.0051 4.4332 13.9865 4.51424 13.9452L8.00003 12.1736L11.4858 13.9452C11.581 13.9941 11.6915 14.0104 11.7974 13.9926C12.0645 13.9481 12.2441 13.7033 12.198 13.4452ZM3.13714 7.06441L5.54724 9.33573L4.9691 12.5923L8.00003 11.0519L11.031 12.5923L10.4528 9.33573L12.8629 7.06441L9.52841 6.59597L8.00003 3.60089L6.47166 6.59597L3.13714 7.06441Z" fill="black"/>
</svg>
