<svg width="16" height="16" viewBox="0 0 16 16" fill="none" xmlns="http://www.w3.org/2000/svg">
<path fill-rule="evenodd" clip-rule="evenodd" d="M12.9825 14.5C12.9825 14.7761 12.759 15 12.4832 15H10.9852V14H11.9839H12.9825V14.5ZM11.9839 11V13H12.9825V11H11.9839ZM11.9839 10V8H12.9825V10H11.9839ZM11.9839 6V7H12.9825V5.16608C12.9825 5.05826 12.9477 4.95332 12.8833 4.86692L12.6213 4.51561L11.9839 5.05682V6ZM11.2251 4.32033L12.014 3.70117L11.0758 2.44313L10.3059 3.09297L11.2251 4.32033ZM10.1495 1.20084L10.4703 1.63113L9.98692 1.99995V2.66712L9.98658 2.66667V3H8.98794V2H7.9893V1H9.74938C9.90692 1 10.0552 1.07444 10.1495 1.20084ZM8.98794 5.5V4H9.98658V5H10.9852V6H9.48726C9.2115 6 8.98794 5.77614 8.98794 5.5ZM4.99338 14H6.99066V15H4.99338V14ZM3.99474 14V13H2.99609V14.5C2.99609 14.7761 3.21965 15 3.49541 15H3.99474V14ZM3.99474 10V12H2.99609V10H3.99474ZM3.99474 9V7H2.99609V9H3.99474ZM3.99474 4V6H2.99609V4H3.99474ZM3.99474 3V2V1H3.49541C3.21965 1 2.99609 1.22386 2.99609 1.5V3H3.99474ZM4.99338 1V2H6.99066V1H4.99338ZM7.9893 14V15H9.98658V14H7.9893Z" fill="black"/>
</svg>
