<svg width="16" height="16" viewBox="0 0 16 16" fill="none" xmlns="http://www.w3.org/2000/svg">
<path fill-rule="evenodd" clip-rule="evenodd" d="M6.74621 13C6.74621 13.6446 7.26806 14.0002 7.91181 14.0002C8.55555 14.0002 9.0774 13.6446 9.0774 13H10.076C10.076 14.1969 9.10708 15.0002 7.91181 15.0002C6.71653 15.0002 5.74756 14.1969 5.74756 13H6.74621Z" fill="black"/>
<path fill-rule="evenodd" clip-rule="evenodd" d="M12.6187 12C12.5124 11.6462 12.3997 11.2562 12.3 10.8801C12.2173 10.568 12.141 10.2558 12.0847 9.97642C12.0321 9.71506 11.9833 9.41914 11.9833 9.16667V6C11.9833 5.51276 11.7827 4.46662 11.1623 3.56921C10.5784 2.72468 9.62244 2 7.98878 2C6.33527 2 5.37956 2.70139 4.80464 3.50097C4.19216 4.3528 3.99421 5.35079 3.99421 5.83333V9C3.99421 9.49672 3.83539 10.215 3.67926 10.828C3.57774 11.2266 3.46277 11.6341 3.35475 12H12.6187ZM2.6897 13H13.2879C13.6287 13 13.8708 12.6663 13.7685 12.3408C13.4753 11.4083 12.982 9.75236 12.982 9.16667V6C12.982 4.66667 11.9833 1 7.98878 1C3.99421 1 2.99557 4.5 2.99557 5.83333V9C2.99557 9.70383 2.50087 11.3984 2.20784 12.3404C2.10648 12.6663 2.34889 13 2.6897 13Z" fill="black"/>
</svg>
