<svg width="16" height="16" viewBox="0 0 16 16" fill="none" xmlns="http://www.w3.org/2000/svg">
<path fill-rule="evenodd" clip-rule="evenodd" d="M4.38559 4.353C4.76066 3.97793 5.26937 3.76721 5.7998 3.76721H11.1331C11.6636 3.76721 12.1723 3.97793 12.5474 4.353C12.9224 4.72807 13.1331 5.23678 13.1331 5.76721C13.1331 6.1354 12.8347 6.43388 12.4665 6.43388C12.0983 6.43388 11.7998 6.1354 11.7998 5.76721C11.7998 5.5904 11.7296 5.42083 11.6045 5.29581C11.4795 5.17078 11.3099 5.10055 11.1331 5.10055H5.7998C5.62299 5.10055 5.45342 5.17078 5.3284 5.29581C5.20338 5.42083 5.13314 5.5904 5.13314 5.76721V11.1005C5.13314 11.2774 5.20338 11.4469 5.3284 11.5719C5.45342 11.697 5.62299 11.7672 5.7998 11.7672C6.16799 11.7672 6.46647 12.0657 6.46647 12.4339C6.46647 12.8021 6.16799 13.1005 5.7998 13.1005C5.26937 13.1005 4.76066 12.8898 4.38559 12.5148C4.01052 12.1397 3.7998 11.631 3.7998 11.1005V5.76721C3.7998 5.23678 4.01052 4.72807 4.38559 4.353Z" fill="black"/>
<path fill-rule="evenodd" clip-rule="evenodd" d="M1.79948 1.10059C2.16767 1.10059 2.46615 1.39906 2.46615 1.76725V1.77392C2.46615 2.14211 2.16767 2.44059 1.79948 2.44059C1.43129 2.44059 1.13281 2.14211 1.13281 1.77392V1.76725C1.13281 1.39906 1.43129 1.10059 1.79948 1.10059ZM4.46615 1.10059C4.83434 1.10059 5.13281 1.39906 5.13281 1.76725V1.77392C5.13281 2.14211 4.83434 2.44059 4.46615 2.44059C4.09796 2.44059 3.79948 2.14211 3.79948 1.77392V1.76725C3.79948 1.39906 4.09796 1.10059 4.46615 1.10059ZM7.13281 1.10059C7.501 1.10059 7.79948 1.39906 7.79948 1.76725V1.77392C7.79948 2.14211 7.501 2.44059 7.13281 2.44059C6.76462 2.44059 6.46615 2.14211 6.46615 1.77392V1.76725C6.46615 1.39906 6.76462 1.10059 7.13281 1.10059ZM9.79948 1.10059C10.1677 1.10059 10.4661 1.39906 10.4661 1.76725V1.77392C10.4661 2.14211 10.1677 2.44059 9.79948 2.44059C9.43129 2.44059 9.13281 2.14211 9.13281 1.77392V1.76725C9.13281 1.39906 9.43129 1.10059 9.79948 1.10059ZM1.79948 3.76725C2.16767 3.76725 2.46615 4.06573 2.46615 4.43392V4.44059C2.46615 4.80878 2.16767 5.10725 1.79948 5.10725C1.43129 5.10725 1.13281 4.80878 1.13281 4.44059V4.43392C1.13281 4.06573 1.43129 3.76725 1.79948 3.76725ZM1.79948 6.43392C2.16767 6.43392 2.46615 6.7324 2.46615 7.10059V7.10725C2.46615 7.47544 2.16767 7.77392 1.79948 7.77392C1.43129 7.77392 1.13281 7.47544 1.13281 7.10725V7.10059C1.13281 6.7324 1.43129 6.43392 1.79948 6.43392ZM1.79948 9.10059C2.16767 9.10059 2.46615 9.39906 2.46615 9.76725V9.77392C2.46615 10.1421 2.16767 10.4406 1.79948 10.4406C1.43129 10.4406 1.13281 10.1421 1.13281 9.77392V9.76725C1.13281 9.39906 1.43129 9.10059 1.79948 9.10059Z" fill="black"/>
<path fill-rule="evenodd" clip-rule="evenodd" d="M12.769 8.43066C12.7517 8.44828 12.7114 8.50075 12.7114 8.63208V8.87727C12.7114 9.15342 12.4875 9.37727 12.2114 9.37727C11.9353 9.37727 11.7114 9.15342 11.7114 8.87727V8.63208C11.7114 8.27261 11.8321 7.95698 12.0563 7.72919C12.2764 7.50558 12.5683 7.39587 12.8555 7.39587C13.1427 7.39587 13.4346 7.50558 13.6547 7.72919C13.8789 7.95698 13.9996 8.27261 13.9996 8.63208V12.3125C13.9996 12.9585 13.7904 13.5252 13.3776 13.9306C12.9663 14.3346 12.402 14.5301 11.782 14.5301H9.79773C9.41692 14.5301 9.05382 14.3705 8.79664 14.0897L7.17188 12.3172C7.17185 12.3172 7.17191 12.3173 7.17188 12.3172C6.95765 12.0836 6.83174 11.7824 6.81611 11.4658C6.80047 11.1492 6.89604 10.837 7.08625 10.5834C7.08625 10.5835 7.08626 10.5834 7.08625 10.5834L7.94678 9.43608C8.11246 9.21517 8.42586 9.17039 8.64678 9.33608C8.86769 9.50176 8.91246 9.81517 8.74678 10.0361L7.88625 11.1834C7.83602 11.2504 7.81076 11.3329 7.81489 11.4165C7.81902 11.5001 7.85225 11.5796 7.90884 11.6413L9.53379 13.414C9.60123 13.4877 9.69688 13.5301 9.79773 13.5301H11.782C12.1926 13.5301 12.4871 13.4036 12.6769 13.2171C12.8653 13.0321 12.9996 12.74 12.9996 12.3125V8.63208C12.9996 8.50075 12.9593 8.44828 12.942 8.43066C12.9205 8.40887 12.8903 8.39587 12.8555 8.39587C12.8207 8.39587 12.7905 8.40887 12.769 8.43066Z" fill="black"/>
<path fill-rule="evenodd" clip-rule="evenodd" d="M12.3661 7.34186C12.5903 7.56965 12.7111 7.88528 12.7111 8.24476V8.87727C12.7111 9.15341 12.4872 9.37727 12.2111 9.37727C11.9349 9.37727 11.7111 9.15341 11.7111 8.87727V8.24476C11.7111 8.11342 11.6708 8.06095 11.6534 8.04333C11.632 8.02154 11.6018 8.00854 11.567 8.00854C11.5321 8.00854 11.5019 8.02154 11.4805 8.04333C11.4631 8.06095 11.4229 8.11342 11.4229 8.24476V8.87727C11.4229 9.15341 11.199 9.37727 10.9229 9.37727C10.6467 9.37727 10.4229 9.15341 10.4229 8.87727V8.01846C10.4229 7.90791 10.4587 7.80574 10.5195 7.72296C10.5775 7.57913 10.6609 7.4505 10.7678 7.34186C10.9879 7.11825 11.2797 7.00854 11.567 7.00854C11.8542 7.00854 12.146 7.11825 12.3661 7.34186Z" fill="black"/>
<path fill-rule="evenodd" clip-rule="evenodd" d="M10.1925 7.81702C10.1752 7.83463 10.1349 7.8871 10.1349 8.01844V8.87724C10.1349 9.15338 9.91103 9.37724 9.63489 9.37724C9.35875 9.37724 9.13489 9.15338 9.13489 8.87724V7.96863C9.13489 7.94828 9.13102 7.93684 9.12835 7.93092C9.12554 7.92467 9.1211 7.91805 9.11318 7.91098C9.09704 7.89657 9.05808 7.87433 8.99078 7.87433C8.95256 7.87433 8.91591 7.88952 8.88889 7.91654C8.86186 7.94356 8.84668 7.98022 8.84668 8.01844V11.0243C8.84668 11.3004 8.62282 11.5243 8.34668 11.5243C8.07054 11.5243 7.84668 11.3004 7.84668 11.0243V8.01844C7.84668 7.715 7.96722 7.42399 8.18178 7.20943C8.39634 6.99487 8.68735 6.87433 8.99078 6.87433C9.19691 6.87433 9.40181 6.92673 9.58005 7.02529C9.78461 6.86237 10.0335 6.78223 10.279 6.78223C10.5662 6.78223 10.8581 6.89193 11.0782 7.11554L11.081 7.11845C11.2349 7.0449 11.4018 7.00852 11.5672 7.00852C11.8544 7.00852 12.1463 7.11823 12.3664 7.34184C12.5906 7.56963 12.7113 7.88526 12.7113 8.24473V8.87724C12.7113 9.15338 12.4874 9.37724 12.2113 9.37724C11.9352 9.37724 11.7113 9.15338 11.7113 8.87724V8.24473C11.7113 8.1134 11.671 8.06092 11.6537 8.04331C11.6322 8.02152 11.602 8.00852 11.5672 8.00852C11.5324 8.00852 11.5022 8.02152 11.4807 8.04331C11.4634 8.06092 11.4231 8.1134 11.4231 8.24473V8.87724C11.4231 9.15338 11.1992 9.37724 10.9231 9.37724C10.647 9.37724 10.4231 9.15338 10.4231 8.87724V8.01844C10.4231 7.8871 10.3828 7.83463 10.3655 7.81702C10.344 7.79522 10.3138 7.78223 10.279 7.78223C10.2441 7.78223 10.214 7.79522 10.1925 7.81702Z" fill="black"/>
</svg>
