<svg width="16" height="16" viewBox="0 0 16 16" fill="none" xmlns="http://www.w3.org/2000/svg">
<path fill-rule="evenodd" clip-rule="evenodd" d="M9.98797 10.5016C9.99035 10.2253 9.76863 9.99941 9.49273 9.99702L3.98707 9.94935L5.90301 8.0637C6.09968 7.87013 6.10241 7.55357 5.90911 7.35663C5.71581 7.15968 5.39968 7.15695 5.203 7.35051L2.36176 10.1468L2.3539 10.1544C2.15723 10.348 2.15449 10.6645 2.34779 10.8615L5.14786 13.7143C5.34116 13.9112 5.6573 13.914 5.85397 13.7204C6.05065 13.5268 6.05338 13.2103 5.86008 13.0133L3.83349 10.9486L9.48409 10.9975C9.75999 10.9999 9.98558 10.7779 9.98797 10.5016Z" fill="black"/>
<path fill-rule="evenodd" clip-rule="evenodd" d="M5.99564 5.48237C5.99364 5.7585 6.21556 5.98398 6.49132 5.98599L12.0863 6.02678L10.1149 7.97223C9.91854 8.16606 9.91624 8.48263 10.1098 8.67931C10.3034 8.87599 10.6195 8.87829 10.8159 8.68446L13.661 5.87669C13.8574 5.68286 13.8597 5.36629 13.6661 5.16962L13.6599 5.16335L10.8621 2.32065C10.6685 2.12397 10.3523 2.12167 10.1559 2.3155C9.95952 2.50933 9.95722 2.8259 10.1508 3.02258L12.1236 5.02702L6.49859 4.98602C6.22283 4.98401 5.99765 5.20623 5.99564 5.48237Z" fill="black"/>
</svg>
