<svg width="16" height="16" viewBox="0 0 16 16" fill="none" xmlns="http://www.w3.org/2000/svg">
<path fill-rule="evenodd" clip-rule="evenodd" d="M1.99707 7.7963C1.99707 4.28821 4.63524 2 6.97178 2C7.15403 2 7.32179 2.09942 7.40949 2.2594C7.49719 2.41937 7.49088 2.61448 7.39304 2.76844C4.83178 6.79874 9.18854 11.1614 13.2134 8.59669C13.3671 8.49871 13.562 8.4924 13.7217 8.58022C13.8815 8.66803 13.9808 8.83603 13.9808 9.01852C13.9808 11.3582 11.6957 14 8.19234 14C4.66175 14 1.99707 11.3317 1.99707 7.7963ZM6.065 3.14969C4.54669 3.6372 2.99571 5.29358 2.99571 7.7963C2.99571 10.7794 5.21328 13 8.19234 13C10.6917 13 12.3458 11.4469 12.8326 9.92653C8.4937 11.7809 4.21316 7.49453 6.065 3.14969Z" fill="black"/>
</svg>
