<svg width="16" height="16" viewBox="0 0 16 16" fill="none" xmlns="http://www.w3.org/2000/svg">
<path fill-rule="evenodd" clip-rule="evenodd" d="M7.08068 2.43215C6.90744 2.22802 6.59278 2.22802 6.41955 2.43215C6.35291 2.51068 6.31632 2.61038 6.31632 2.71344V4.33004L6.9793 3.64635C7.04168 3.58203 7.11057 3.52791 7.18391 3.48402V2.71344C7.18391 2.61038 7.14732 2.51068 7.08068 2.43215ZM8.18255 3.46955V2.71344C8.18255 2.37314 8.06173 2.04392 7.84166 1.7846C7.26963 1.11054 6.23059 1.11054 5.65856 1.7846C5.4385 2.04392 5.31767 2.37314 5.31767 2.71344V5.35988L2.22555 8.54859C1.83892 8.9473 1.85111 9.5852 2.2527 9.9688L6.24983 13.787C6.63584 14.1557 7.2431 14.1555 7.62889 13.7866L12.4928 9.13458C12.5302 9.09881 12.5642 9.06085 12.5948 9.02109L12.3484 9.88884L12.0502 10.9385C12.0063 11.0933 12.0015 11.2566 12.0362 11.4137L12.0495 11.4738C12.2707 12.4729 13.6931 12.4729 13.9142 11.4738C13.9573 11.2791 13.9386 11.0757 13.8605 10.8921L13.4055 9.82232L12.8017 8.40248C12.7994 8.14803 12.7008 7.89411 12.5054 7.7005L8.39805 3.63205C8.3322 3.56683 8.25961 3.51267 8.18255 3.46955ZM7.18391 4.87081V7.482C7.0122 7.62536 6.90292 7.84118 6.90292 8.08256C6.90292 8.5142 7.25236 8.86411 7.68341 8.86411C8.11447 8.86411 8.46391 8.5142 8.46391 8.08256C8.46391 7.84101 8.35448 7.62505 8.18255 7.48169V4.82518L11.8031 8.41143L6.93913 13.0634L2.942 9.24523L7.18391 4.87081Z" fill="black"/>
</svg>
