<svg width="16" height="16" viewBox="0 0 16 16" fill="none" xmlns="http://www.w3.org/2000/svg">
<path fill-rule="evenodd" clip-rule="evenodd" d="M7.49195 4.14106C7.68484 3.95346 7.99814 3.95291 8.19172 4.13984L11.8374 7.66023C11.9344 7.75393 11.983 7.87695 11.9829 7.99998C11.983 8.12301 11.9344 8.24603 11.8374 8.33973L8.19172 11.8601C7.99814 12.0471 7.68484 12.0465 7.49195 11.8589C7.29907 11.6713 7.29963 11.3677 7.49321 11.1807L10.2905 8.47961L2.49188 8.47961C2.21861 8.47961 1.99707 8.26492 1.99707 8.00008C1.99707 7.73524 2.21861 7.52054 2.49188 7.52054L10.2907 7.52055L7.49321 4.81922C7.29963 4.63229 7.29907 4.32867 7.49195 4.14106Z" fill="black"/>
<path fill-rule="evenodd" clip-rule="evenodd" d="M13.4739 3.00232C13.7497 3.00178 13.9737 3.2252 13.9742 3.50134L13.9918 12.4968C13.9923 12.7729 13.7692 12.9972 13.4934 12.9977C13.2177 12.9983 12.9937 12.7749 12.9931 12.4987L12.9756 3.50329C12.975 3.22715 13.1982 3.00286 13.4739 3.00232Z" fill="black"/>
</svg>
