<svg width="16" height="16" viewBox="0 0 16 16" fill="none" xmlns="http://www.w3.org/2000/svg">
<path fill-rule="evenodd" clip-rule="evenodd" d="M5.17246 4.35866C5.82291 4.35866 6.35019 3.83066 6.35019 3.17933C6.35019 2.528 5.82291 2 5.17246 2C4.52202 2 3.99474 2.528 3.99474 3.17933C3.99474 3.83066 4.52202 4.35866 5.17246 4.35866ZM5.67165 5.30106C6.63304 5.07513 7.34883 4.21094 7.34883 3.17933C7.34883 1.97572 6.37444 1 5.17246 1C3.97049 1 2.99609 1.97572 2.99609 3.17933C2.99609 4.21084 3.71176 5.07498 4.67301 5.301V10.4823C4.66603 10.5458 4.66152 10.608 4.6586 10.668C3.70461 10.8992 2.99609 11.7599 2.99609 12.7862C2.99609 13.9898 3.97049 14.9656 5.17246 14.9656C6.37444 14.9656 7.34883 13.9898 7.34883 12.7862C7.34883 11.7546 6.63304 10.8904 5.67165 10.6645V10.5501C5.69726 10.3539 5.75281 10.2252 5.86601 10.1191C6.0722 9.926 6.59255 9.69889 7.92912 9.69889L7.92914 9.69889C9.30366 9.69884 10.1759 9.40138 10.6968 8.89117C11.1236 8.47312 11.2468 7.97864 11.2786 7.58961C12.2534 7.37354 12.9825 6.50291 12.9825 5.46177C12.9825 4.25816 12.0081 3.28244 10.8062 3.28244C9.60418 3.28244 8.62979 4.25816 8.62979 5.46177C8.62979 6.48243 9.33047 7.33921 10.2764 7.5761C10.2492 7.79765 10.1748 8.00365 9.99853 8.17627C9.7483 8.42135 9.19039 8.69885 7.92912 8.69889C6.92501 8.69889 6.191 8.81508 5.67165 9.06255V5.30106ZM6.35019 12.7862C6.35019 13.4376 5.82291 13.9656 5.17246 13.9656C4.52202 13.9656 3.99474 13.4376 3.99474 12.7862C3.99474 12.1349 4.52202 11.6069 5.17246 11.6069C5.82291 11.6069 6.35019 12.1349 6.35019 12.7862ZM10.8062 6.6411C11.4566 6.6411 11.9839 6.1131 11.9839 5.46177C11.9839 4.81044 11.4566 4.28244 10.8062 4.28244C10.1557 4.28244 9.62843 4.81044 9.62843 5.46177C9.62843 6.1131 10.1557 6.6411 10.8062 6.6411Z" fill="black"/>
</svg>
