<svg width="16" height="16" viewBox="0 0 16 16" fill="none" xmlns="http://www.w3.org/2000/svg">
<path fill-rule="evenodd" clip-rule="evenodd" d="M7.72725 9.83869C7.88774 9.93758 8.09015 9.93758 8.25064 9.83869L13.7891 6.42578C14.1059 6.23053 14.1059 5.76936 13.7891 5.57412L8.25064 2.16121C8.09015 2.06231 7.88774 2.06231 7.72725 2.16121L2.1888 5.57412C1.87196 5.76936 1.87196 6.23053 2.1888 6.42578L7.72725 9.83869ZM3.40322 5.99995L7.98895 8.82577L12.5747 5.99995L7.98895 3.17413L3.40322 5.99995Z" fill="black"/>
<path fill-rule="evenodd" clip-rule="evenodd" d="M2.11088 8.22466C2.24871 7.98548 2.55408 7.90348 2.79292 8.04151L7.99075 11.0452L13.2393 8.04059C13.4787 7.90354 13.7837 7.98678 13.9206 8.22651C14.0574 8.46624 13.9743 8.77169 13.7349 8.90874L8.48638 11.9133C8.17802 12.0899 7.79924 12.0891 7.4916 11.9113L2.29377 8.90763C2.05493 8.76961 1.97304 8.46383 2.11088 8.22466Z" fill="black"/>
<path fill-rule="evenodd" clip-rule="evenodd" d="M2.08451 10.2547C2.22235 10.0155 2.52771 9.93351 2.76656 10.0715L7.96438 13.0752L13.2129 10.0706C13.4523 9.93357 13.7573 10.0168 13.8942 10.2565C14.0311 10.4963 13.9479 10.8017 13.7085 10.9388L8.46001 13.9434C8.15165 14.1199 7.77287 14.1191 7.46523 13.9413L2.26741 10.9377C2.02856 10.7996 1.94667 10.4939 2.08451 10.2547Z" fill="black"/>
</svg>
