<svg width="16" height="16" viewBox="0 0 16 16" fill="none" xmlns="http://www.w3.org/2000/svg">
<path fill-rule="evenodd" clip-rule="evenodd" d="M7.98951 14C11.2987 14 13.9814 11.3137 13.9814 8C13.9814 4.68629 11.2987 2 7.98951 2C4.68031 2 1.99766 4.68629 1.99766 8C1.99766 11.3137 4.68031 14 7.98951 14ZM7.98951 15C11.8503 15 14.98 11.866 14.98 8C14.98 4.13401 11.8503 1 7.98951 1C4.12877 1 0.999023 4.13401 0.999023 8C0.999023 11.866 4.12877 15 7.98951 15Z" fill="black"/>
<path fill-rule="evenodd" clip-rule="evenodd" d="M10.8388 5.85355C11.0338 5.65829 11.0338 5.34171 10.8388 5.14645C10.6438 4.95118 10.3276 4.95118 10.1326 5.14645L7.98909 7.29289L5.84556 5.14645C5.65056 4.95118 5.33441 4.95118 5.13941 5.14645C4.94441 5.34171 4.94441 5.65829 5.13941 5.85355L7.28294 8L5.13941 10.1464C4.94441 10.3417 4.94441 10.6583 5.13941 10.8536C5.33441 11.0488 5.65056 11.0488 5.84556 10.8536L7.98909 8.70711L10.1326 10.8536C10.3276 11.0488 10.6438 11.0488 10.8388 10.8536C11.0338 10.6583 11.0338 10.3417 10.8388 10.1464L8.69523 8L10.8388 5.85355Z" fill="black"/>
</svg>
