<svg width="16" height="16" viewBox="0 0 16 16" fill="none" xmlns="http://www.w3.org/2000/svg">
<path fill-rule="evenodd" clip-rule="evenodd" d="M2.99571 3V6H5.99164V3H2.99571ZM2.49639 2H6.49096C6.76672 2 6.99028 2.22386 6.99028 2.5V6.5C6.99028 6.77614 6.76672 7 6.49096 7H2.49639C2.22062 7 1.99707 6.77614 1.99707 6.5V2.5C1.99707 2.22386 2.22062 2 2.49639 2Z" fill="black"/>
<path fill-rule="evenodd" clip-rule="evenodd" d="M2.99571 10V13H5.99164V10H2.99571ZM2.49639 9H6.49096C6.76672 9 6.99028 9.22386 6.99028 9.5V13.5C6.99028 13.7761 6.76672 14 6.49096 14H2.49639C2.22062 14 1.99707 13.7761 1.99707 13.5V9.5C1.99707 9.22386 2.22062 9 2.49639 9Z" fill="black"/>
<path fill-rule="evenodd" clip-rule="evenodd" d="M9.98595 3V6H12.9819V3H9.98595ZM9.48663 2H13.4812C13.757 2 13.9805 2.22386 13.9805 2.5V6.5C13.9805 6.77614 13.757 7 13.4812 7H9.48663C9.21086 7 8.9873 6.77614 8.9873 6.5V2.5C8.9873 2.22386 9.21086 2 9.48663 2Z" fill="black"/>
<path fill-rule="evenodd" clip-rule="evenodd" d="M9.98595 10V13H12.9819V10H9.98595ZM9.48663 9H13.4812C13.757 9 13.9805 9.22386 13.9805 9.5V13.5C13.9805 13.7761 13.757 14 13.4812 14H9.48663C9.21086 14 8.9873 13.7761 8.9873 13.5V9.5C8.9873 9.22386 9.21086 9 9.48663 9Z" fill="black"/>
</svg>
