<svg width="16" height="16" viewBox="0 0 16 16" fill="none" xmlns="http://www.w3.org/2000/svg">
<g clip-path="url(#clip0_745_1201)">
<path fill-rule="evenodd" clip-rule="evenodd" d="M10.9584 5.69628C10.84 5.57789 10.9108 5.37512 11.0771 5.35615L14.6936 4.9436C14.8209 4.92907 14.9288 5.03639 14.9151 5.16382L14.5218 8.79956C14.5038 8.96655 14.3003 9.03824 14.1816 8.91947L10.9584 5.69628Z" fill="black"/>
<path fill-rule="evenodd" clip-rule="evenodd" d="M13.7261 6.10367C13.9266 6.29356 13.9352 6.61003 13.7453 6.81051L9.55643 11.2329L6.50306 8.00932L1.97337 12.7917C1.78347 12.9922 1.46701 13.0008 1.26652 12.8109C1.06603 12.621 1.05745 12.3045 1.24734 12.104L6.50306 6.55514L9.55643 9.77877L13.0193 6.12284C13.2092 5.92235 13.5256 5.91377 13.7261 6.10367Z" fill="black"/>
</g>
<defs>
<clipPath id="clip0_745_1201">
<rect width="16" height="16" fill="white"/>
</clipPath>
</defs>
</svg>
