<svg width="16" height="16" viewBox="0 0 16 16" fill="none" xmlns="http://www.w3.org/2000/svg">
<path fill-rule="evenodd" clip-rule="evenodd" d="M6.98816 1C6.436 1 5.98838 1.44925 5.98838 2.00343V2.95881H6.98816V2.00343H8.99077L8.99077 2.95881H9.99055V2.00343C9.99055 1.44925 9.54293 1 8.99077 1H6.98816ZM13.9808 3.76173C13.9808 3.87256 13.8912 3.96241 13.7808 3.96241H12.9035L12.0635 14.08C12.0203 14.6001 11.5871 15.0001 11.0671 15.0001H4.90875C4.38878 15.0001 3.95561 14.6001 3.91242 14.08L3.07235 3.96241H2.19703C2.08659 3.96241 1.99707 3.87256 1.99707 3.76173V3.15967C1.99707 3.04883 2.08659 2.95898 2.19703 2.95898H2.98904H12.9868H13.7808C13.8912 2.95898 13.9808 3.04883 13.9808 3.15967V3.76173ZM4.0756 3.96241H11.9003L11.0671 13.9967H4.90875L4.0756 3.96241ZM9.98902 6.51554V11.4425C9.98902 11.7445 9.7451 11.9893 9.44422 11.9893C9.14333 11.9893 8.89941 11.7445 8.89941 11.4425V6.51554C8.89941 6.21356 9.14333 5.96875 9.44422 5.96875C9.7451 5.96875 9.98902 6.21356 9.98902 6.51554ZM7.01617 11.4745V6.48354C7.01617 6.19923 6.78653 5.96875 6.50325 5.96875C6.21998 5.96875 5.99033 6.19923 5.99033 6.48354V11.4745C5.99033 11.7588 6.21998 11.9893 6.50325 11.9893C6.78653 11.9893 7.01617 11.7588 7.01617 11.4745Z" fill="black"/>
</svg>
