<svg width="16" height="16" viewBox="0 0 16 16" fill="none" xmlns="http://www.w3.org/2000/svg">
<path d="M7.98926 3.50482C7.98926 3.22906 8.21281 3.00551 8.48857 3.00551C8.76434 3.00551 8.98789 3.22906 8.98789 3.50482L8.98789 7.50618C8.98789 7.78194 8.76434 8.00549 8.48857 8.00549C8.21281 8.00549 7.98926 7.78194 7.98926 7.50618L7.98926 3.50482Z" fill="black"/>
<path d="M12.4824 7.00545C12.7586 7.00545 12.9824 7.22931 12.9824 7.50545C12.9824 7.78158 12.7586 8.00544 12.4824 8.00544L8.48857 8.00549C8.21281 8.00549 7.98926 7.78194 7.98926 7.50618C7.98926 7.23004 8.21307 7.00545 8.48921 7.00545L12.4824 7.00545Z" fill="black"/>
<path d="M11.8299 3.47067C12.0214 3.27882 12.3321 3.27882 12.5237 3.47067C12.7153 3.66252 12.7153 3.97357 12.5237 4.16542L9.33507 7.35836C9.14348 7.55021 8.83285 7.55021 8.64126 7.35836C8.44966 7.16651 8.44966 6.85545 8.64126 6.6636L11.8299 3.47067Z" fill="black"/>
<path d="M7.98926 12.5007C7.98926 12.7764 7.76571 13 7.48994 13C7.21418 13 6.99063 12.7764 6.99063 12.5007L6.99063 8.49933C6.99063 8.22356 7.21418 8.00001 7.48994 8.00001C7.76571 8.00001 7.98926 8.22356 7.98926 8.49933L7.98926 12.5007Z" fill="black"/>
<path d="M3.49609 9C3.21995 9 2.99609 8.77615 2.99609 8.50001C2.99609 8.22387 3.21995 8.00001 3.49609 8.00001L7.48994 8.00001C7.76571 8.00001 7.98926 8.22356 7.98926 8.49933C7.98926 8.77547 7.76544 9 7.48931 9L3.49609 9Z" fill="black"/>
<path d="M4.14866 12.5348C3.95707 12.7267 3.64644 12.7267 3.45485 12.5348C3.26326 12.343 3.26326 12.0319 3.45485 11.8401L6.64345 8.64714C6.83504 8.45528 7.14567 8.45528 7.33726 8.64714C7.52885 8.83899 7.52885 9.15004 7.33726 9.34189L4.14866 12.5348Z" fill="black"/>
</svg>
