<svg width="16" height="16" viewBox="0 0 16 16" fill="none" xmlns="http://www.w3.org/2000/svg">
<path fill-rule="evenodd" clip-rule="evenodd" d="M7.98951 14C11.2987 14 13.9814 11.3137 13.9814 8C13.9814 4.68629 11.2987 2 7.98951 2C4.68031 2 1.99766 4.68629 1.99766 8C1.99766 11.3137 4.68031 14 7.98951 14ZM7.98951 15C11.8503 15 14.98 11.866 14.98 8C14.98 4.13401 11.8503 1 7.98951 1C4.12877 1 0.999023 4.13401 0.999023 8C0.999023 11.866 4.12877 15 7.98951 15Z" fill="black"/>
<path d="M4.49414 8C4.49414 7.72386 4.71769 7.5 4.99346 7.5H10.9853C11.2611 7.5 11.4846 7.72386 11.4846 8C11.4846 8.27614 11.2611 8.5 10.9853 8.5H4.99346C4.71769 8.5 4.49414 8.27614 4.49414 8Z" fill="black"/>
</svg>
