<svg width="16" height="16" viewBox="0 0 16 16" fill="none" xmlns="http://www.w3.org/2000/svg">
<path fill-rule="evenodd" clip-rule="evenodd" d="M7.98951 15.1328C11.8503 15.1328 14.98 11.9988 14.98 8.13281C14.98 4.26682 11.8503 1.13281 7.98951 1.13281C4.12878 1.13281 0.999023 4.26682 0.999023 8.13281C0.999023 11.9988 4.12878 15.1328 7.98951 15.1328ZM7.3244 7.46582H8.65593V11.1325H7.3244V7.46582ZM8.82106 5.63314C8.82106 6.09337 8.44848 6.46647 7.98886 6.46647C7.52925 6.46647 7.15667 6.09337 7.15667 5.63314C7.15667 5.1729 7.52925 4.7998 7.98886 4.7998C8.44848 4.7998 8.82106 5.1729 8.82106 5.63314Z" fill="black"/>
</svg>
