<svg width="16" height="16" viewBox="0 0 16 16" fill="none" xmlns="http://www.w3.org/2000/svg">
<path fill-rule="evenodd" clip-rule="evenodd" d="M10.3336 6.69565C10.3336 8.71269 8.70064 10.3478 6.68634 10.3478C4.67204 10.3478 3.03913 8.71269 3.03913 6.69565C3.03913 4.67861 4.67204 3.04348 6.68634 3.04348C8.70064 3.04348 10.3336 4.67861 10.3336 6.69565ZM9.61287 10.3648C8.81073 11.0072 7.79333 11.3913 6.68634 11.3913C4.09653 11.3913 1.99707 9.28899 1.99707 6.69565C1.99707 4.10231 4.09653 2 6.68634 2C9.27616 2 11.3756 4.10231 11.3756 6.69565C11.3756 7.80456 10.9917 8.8237 10.3498 9.62707L13.8277 13.1097C14.0312 13.3134 14.0312 13.6438 13.8277 13.8475C13.6242 14.0513 13.2943 14.0513 13.0908 13.8475L9.61287 10.3648Z" fill="black"/>
</svg>
