<svg width="16" height="16" viewBox="0 0 16 16" fill="none" xmlns="http://www.w3.org/2000/svg">
<path fill-rule="evenodd" clip-rule="evenodd" d="M13.9042 8.9653C13.955 8.65104 13.9814 8.32861 13.9814 8C13.9814 7.67139 13.955 7.34896 13.9042 7.0347L12.1052 7.48507C12.0541 7.49785 12.0029 7.50226 11.9531 7.49917C11.9735 7.66323 11.9841 7.83038 11.9841 8C11.9841 8.16962 11.9735 8.33677 11.9531 8.50083C12.0029 8.49774 12.0541 8.50215 12.1052 8.51493L13.9042 8.9653ZM13.6627 9.93562L11.863 9.48507C11.8121 9.47235 11.7651 9.45224 11.7227 9.42618C11.3179 10.4881 10.4742 11.3329 9.41375 11.7383C9.43853 11.7787 9.45794 11.8234 9.47073 11.8716L9.94843 13.672C11.6905 13.0688 13.0681 11.6836 13.6627 9.93562ZM7.98951 12C8.1589 12 8.32582 11.9894 8.48966 11.9689C8.48642 12.0213 8.4914 12.075 8.50558 12.1284L8.98049 13.9183C8.65814 13.972 8.32709 14 7.98951 14C7.66135 14 7.33935 13.9736 7.02552 13.9228L7.47528 12.1213C7.48805 12.0701 7.49245 12.0189 7.48936 11.9689C7.6532 11.9894 7.82013 12 7.98951 12ZM6.56527 11.7383C5.50481 11.3329 4.66113 10.4881 4.25632 9.42618C4.21392 9.45224 4.16688 9.47235 4.11605 9.48507L2.3163 9.93562C2.91386 11.6923 4.30223 13.0826 6.05652 13.6809L6.50646 11.8787C6.51917 11.8278 6.53924 11.7807 6.56527 11.7383ZM11.863 6.51493L13.6627 6.06438C13.0652 4.30771 11.6768 2.91744 9.9225 2.31907L9.47257 4.12127C9.45986 4.17217 9.43978 4.21927 9.41376 4.26173C10.4742 4.66709 11.3179 5.51192 11.7227 6.57382C11.7651 6.54776 11.8121 6.52765 11.863 6.51493ZM8.48966 4.03105C8.32582 4.01056 8.1589 4 7.98951 4C7.82013 4 7.6532 4.01056 7.48936 4.03105C7.49245 3.98111 7.48805 3.92986 7.47528 3.87873L7.02552 2.07724C7.33935 2.02642 7.66135 2 7.98951 2C8.31767 2 8.63967 2.02642 8.9535 2.07724L8.50374 3.87873C8.49098 3.92986 8.48657 3.98111 8.48966 4.03105ZM2.3163 6.06438C2.91386 4.3077 4.30223 2.91744 6.05652 2.31907L6.50646 4.12127C6.51917 4.17217 6.53924 4.21927 6.56527 4.26173C5.50481 4.66709 4.66114 5.51192 4.25632 6.57382C4.21392 6.54776 4.16688 6.52765 4.11605 6.51493L2.3163 6.06438ZM4.02596 8.50083C4.00549 8.33677 3.99495 8.16962 3.99495 8C3.99495 7.83038 4.00549 7.66323 4.02596 7.49917C3.97608 7.50226 3.9249 7.49785 3.87384 7.48507L2.0748 7.0347C2.02405 7.34896 1.99766 7.67139 1.99766 8C1.99766 8.32861 2.02405 8.65104 2.0748 8.9653L3.87384 8.51493C3.9249 8.50215 3.97608 8.49774 4.02596 8.50083ZM7.98951 15C11.8503 15 14.98 11.866 14.98 8C14.98 4.13401 11.8503 1 7.98951 1C4.12877 1 0.999023 4.13401 0.999023 8C0.999023 11.866 4.12877 15 7.98951 15ZM10.9854 8C10.9854 9.65685 9.64412 11 7.98951 11C6.33491 11 4.99359 9.65685 4.99359 8C4.99359 6.34315 6.33491 5 7.98951 5C9.64412 5 10.9854 6.34315 10.9854 8Z" fill="black"/>
</svg>
