<svg width="16" height="16" viewBox="0 0 16 16" fill="none" xmlns="http://www.w3.org/2000/svg">
<path fill-rule="evenodd" clip-rule="evenodd" d="M8.60459 11.327C8.33822 11.4385 8.04585 11.5 7.73913 11.5C6.49818 11.5 5.49219 10.4926 5.49219 9.25C5.49219 8.00736 6.49818 7 7.73913 7C8.98008 7 9.98607 8.00736 9.98607 9.25C9.98607 9.82419 9.77128 10.3481 9.41777 10.7457L10.4012 12.2229C10.5542 12.4526 10.4922 12.7631 10.2627 12.9162C10.0333 13.0694 9.72325 13.0073 9.57029 12.7776L8.60459 11.327ZM8.98743 9.25C8.98743 9.94036 8.42855 10.5 7.73913 10.5C7.04971 10.5 6.49083 9.94036 6.49083 9.25C6.49083 8.55964 7.04971 8 7.73913 8C8.42855 8 8.98743 8.55964 8.98743 9.25Z" fill="black"/>
<path fill-rule="evenodd" clip-rule="evenodd" d="M12.9825 14.5C12.9825 14.7761 12.759 15 12.4832 15H3.49541C3.21965 15 2.99609 14.7761 2.99609 14.5V1.5C2.99609 1.22386 3.21965 1 3.49541 1H9.74938C9.90692 1 10.0552 1.07444 10.1495 1.20084L12.8833 4.86692C12.9477 4.95332 12.9825 5.05826 12.9825 5.16608V14.5ZM11.9839 6H9.48726C9.2115 6 8.98794 5.77614 8.98794 5.5V2H3.99474V14H11.9839V6ZM11.7362 5L9.98658 2.65377V5H11.7362Z" fill="black"/>
</svg>
