<svg width="16" height="16" viewBox="0 0 16 16" fill="none" xmlns="http://www.w3.org/2000/svg">
<g clip-path="url(#clip0_936_1333)">
<path fill-rule="evenodd" clip-rule="evenodd" d="M7.9808 3.16676L2.47255 6.49999L7.9808 9.83323L13.5477 6.49999L7.9808 3.16676ZM8.23569 2.15424L14.777 6.07086C15.101 6.26491 15.101 6.73507 14.777 6.92913L14.7243 6.96067C14.7253 6.97365 14.7258 6.98676 14.7258 6.99999V9.99999C14.7258 10.2761 14.5022 10.5 14.2265 10.5C13.9507 10.5 13.7271 10.2761 13.7271 9.99999V7.5577L12.483 8.30265V10.9753C12.483 11.3319 12.2933 11.6616 11.9852 11.8405L8.46803 13.8821C8.15671 14.0628 7.77236 14.0618 7.46197 13.8795L3.98863 11.8396C3.68298 11.6601 3.49522 11.3318 3.49522 10.977V8.28726L1.24888 6.92792C0.927456 6.73342 0.927457 6.26657 1.24888 6.07206L7.72119 2.15544C7.87927 2.05979 8.07717 2.05932 8.23569 2.15424ZM8.23569 10.8457L11.4843 8.90059V10.9753L7.96719 13.0169L4.49386 10.977V8.89157L7.72119 10.8445C7.87927 10.9402 8.07717 10.9407 8.23569 10.8457Z" fill="black"/>
</g>
<defs>
<clipPath id="clip0_936_1333">
<rect width="15.9783" height="16" fill="white"/>
</clipPath>
</defs>
</svg>
