<svg width="16" height="16" viewBox="0 0 16 16" fill="none" xmlns="http://www.w3.org/2000/svg">
<path fill-rule="evenodd" clip-rule="evenodd" d="M4.99512 8C4.99512 7.72386 5.21867 7.5 5.49444 7.5H10.4876C10.7634 7.5 10.987 7.72386 10.987 8C10.987 8.27614 10.7634 8.5 10.4876 8.5H5.49444C5.21867 8.5 4.99512 8.27614 4.99512 8Z" fill="black"/>
<path fill-rule="evenodd" clip-rule="evenodd" d="M8.98849 5H10.98C12.6369 5 13.98 6.34315 13.98 8C13.98 8.76837 13.6911 9.46926 13.2161 10H14.4449C14.7852 9.41167 14.98 8.72858 14.98 8C14.98 5.79086 13.1891 4 10.98 4H8.98849V5ZM6.99121 5V4H4.99902C2.78988 4 0.999023 5.79086 0.999023 8C0.999023 10.2091 2.78988 12 4.99902 12L6.99121 12V11H4.99902C3.34217 11 1.99902 9.65686 1.99902 8C1.99902 6.34315 3.34217 5 4.99902 5H6.99121Z" fill="black"/>
<path fill-rule="evenodd" clip-rule="evenodd" d="M11.5098 14.5C11.5098 14.7762 11.7336 15 12.0098 15C12.2859 15 12.5098 14.7762 12.5098 14.5V12.502H14.5C14.7761 12.502 15 12.2781 15 12.002C15 11.7258 14.7761 11.502 14.5 11.502H12.5098V9.49988C12.5098 9.22374 12.2859 8.99988 12.0098 8.99988C11.7336 8.99988 11.5098 9.22374 11.5098 9.49988V11.502H9.5C9.22386 11.502 9 11.7258 9 12.002C9 12.2781 9.22386 12.502 9.5 12.502H11.5098V14.5Z" fill="black"/>
</svg>
