<svg width="16" height="16" viewBox="0 0 16 16" fill="none" xmlns="http://www.w3.org/2000/svg">
<path fill-rule="evenodd" clip-rule="evenodd" d="M12.9828 3.70766L8.3219 8.37495C8.1387 8.5584 7.83212 8.54882 7.63712 8.35355C7.44212 8.15829 7.43255 7.85129 7.61575 7.66785L12.2773 3H9.48828C9.21214 3 8.98828 2.77614 8.98828 2.5C8.98828 2.22386 9.21214 2 9.48828 2H12.9828C13.5344 2 13.9815 2.44772 13.9815 3V6.50068C13.9815 6.77645 13.7579 7 13.4822 7C13.2064 7 12.9828 6.77645 12.9828 6.50068V3.70766Z" fill="black"/>
<path fill-rule="evenodd" clip-rule="evenodd" d="M2.99707 13V3H6.99028V2H2.49707C2.22093 2 1.99707 2.22386 1.99707 2.5V13.5C1.99707 13.7761 2.22093 14 2.49707 14H13.4808C13.7569 14 13.9808 13.7761 13.9808 13.5V9H12.9808V13H2.99707Z" fill="black"/>
</svg>
