<svg width="16" height="16" viewBox="0 0 16 16" fill="none" xmlns="http://www.w3.org/2000/svg">
<path fill-rule="evenodd" clip-rule="evenodd" d="M7.98951 14C11.2987 14 13.9814 11.3137 13.9814 8C13.9814 4.68629 11.2987 2 7.98951 2C4.68031 2 1.99766 4.68629 1.99766 8C1.99766 11.3137 4.68031 14 7.98951 14ZM7.98951 15C11.8503 15 14.98 11.866 14.98 8C14.98 4.13401 11.8503 1 7.98951 1C4.12877 1 0.999023 4.13401 0.999023 8C0.999023 11.866 4.12877 15 7.98951 15Z" fill="black"/>
<path d="M7.32422 7.33301H8.65574V10.9997H7.32422V7.33301Z" fill="black"/>
<path d="M7.98845 6.33366C8.44806 6.33366 8.82065 5.96056 8.82065 5.50033C8.82065 5.04009 8.44806 4.66699 7.98845 4.66699C7.52884 4.66699 7.15625 5.04009 7.15625 5.50033C7.15625 5.96056 7.52884 6.33366 7.98845 6.33366Z" fill="black"/>
</svg>
