<svg width="16" height="16" viewBox="0 0 16 16" fill="none" xmlns="http://www.w3.org/2000/svg">
<path d="M1.99707 13H13.9808V14H1.99707V13Z" fill="black"/>
<path fill-rule="evenodd" clip-rule="evenodd" d="M3.99474 6.62231H4.99338V11H6.30409V6.62231H7.30273V11H8.64466V6.62231H9.6433V11H10.9852V6.68359H11.9839V11H12.9825V12H2.99609V11H3.99474V6.62231Z" fill="black"/>
<path fill-rule="evenodd" clip-rule="evenodd" d="M2.9365 5.67759C2.7019 5.67759 2.51172 5.48715 2.51172 5.25224C2.51172 5.09675 2.59644 4.95365 2.73268 4.87904L7.75097 2.13078C7.89978 2.04928 8.07973 2.049 8.22879 2.13003L13.2865 4.87947C13.4232 4.95378 13.5084 5.09704 13.5084 5.2528C13.5084 5.48741 13.3184 5.67759 13.0841 5.67759H2.9365ZM5.18175 4.67759H10.822L7.99145 3.13886L5.18175 4.67759Z" fill="black"/>
</svg>
