<svg width="16" height="16" viewBox="0 0 16 16" fill="none" xmlns="http://www.w3.org/2000/svg">
<path fill-rule="evenodd" clip-rule="evenodd" d="M3.64136 3.64645C3.83636 3.45118 4.15251 3.45118 4.34751 3.64645L5.34615 4.64645C5.54115 4.84171 5.54115 5.15829 5.34615 5.35355C5.15116 5.54882 4.835 5.54882 4.64001 5.35355L3.64136 4.35355C3.44637 4.15829 3.44637 3.84171 3.64136 3.64645Z" fill="black"/>
<path fill-rule="evenodd" clip-rule="evenodd" d="M12.3364 3.64645C12.5314 3.84171 12.5314 4.15829 12.3364 4.35355L11.3377 5.35355C11.1427 5.54882 10.8266 5.54882 10.6316 5.35355C10.4366 5.15829 10.4366 4.84171 10.6316 4.64645L11.6302 3.64645C11.8252 3.45118 12.1414 3.45118 12.3364 3.64645Z" fill="black"/>
<path fill-rule="evenodd" clip-rule="evenodd" d="M7.98956 2C8.26532 2 8.48888 2.22386 8.48888 2.5V4C8.48888 4.27614 8.26532 4.5 7.98956 4.5C7.71379 4.5 7.49023 4.27614 7.49023 4V2.5C7.49023 2.22386 7.71379 2 7.98956 2Z" fill="black"/>
<path fill-rule="evenodd" clip-rule="evenodd" d="M7.98956 11.5C8.26532 11.5 8.48888 11.7239 8.48888 12V13.5C8.48888 13.7761 8.26532 14 7.98956 14C7.71379 14 7.49023 13.7761 7.49023 13.5V12C7.49023 11.7239 7.71379 11.5 7.98956 11.5Z" fill="black"/>
<path fill-rule="evenodd" clip-rule="evenodd" d="M1.99707 8C1.99707 7.72386 2.22062 7.5 2.49639 7.5H3.99435C4.27012 7.5 4.49367 7.72386 4.49367 8C4.49367 8.27614 4.27012 8.5 3.99435 8.5H2.49639C2.22062 8.5 1.99707 8.27614 1.99707 8Z" fill="black"/>
<path fill-rule="evenodd" clip-rule="evenodd" d="M11.4844 8C11.4844 7.72386 11.7079 7.5 11.9837 7.5H13.4817C13.7574 7.5 13.981 7.72386 13.981 8C13.981 8.27614 13.7574 8.5 13.4817 8.5H11.9837C11.7079 8.5 11.4844 8.27614 11.4844 8Z" fill="black"/>
<path fill-rule="evenodd" clip-rule="evenodd" d="M7.98909 10C9.09216 10 9.98637 9.10457 9.98637 8C9.98637 6.89543 9.09216 6 7.98909 6C6.88602 6 5.99181 6.89543 5.99181 8C5.99181 9.10457 6.88602 10 7.98909 10ZM7.98909 11C9.64369 11 10.985 9.65685 10.985 8C10.985 6.34315 9.64369 5 7.98909 5C6.33448 5 4.99316 6.34315 4.99316 8C4.99316 9.65685 6.33448 11 7.98909 11Z" fill="black"/>
<path fill-rule="evenodd" clip-rule="evenodd" d="M5.34615 10.6464C5.54115 10.8417 5.54115 11.1583 5.34615 11.3536L4.34751 12.3536C4.15251 12.5488 3.83636 12.5488 3.64136 12.3536C3.44637 12.1583 3.44637 11.8417 3.64136 11.6464L4.64001 10.6464C4.835 10.4512 5.15116 10.4512 5.34615 10.6464Z" fill="black"/>
<path fill-rule="evenodd" clip-rule="evenodd" d="M10.6316 10.6464C10.8266 10.4512 11.1427 10.4512 11.3377 10.6464L12.3364 11.6464C12.5314 11.8417 12.5314 12.1583 12.3364 12.3536C12.1414 12.5488 11.8252 12.5488 11.6302 12.3536L10.6316 11.3536C10.4366 11.1583 10.4366 10.8417 10.6316 10.6464Z" fill="black"/>
</svg>
