<svg width="16" height="16" viewBox="0 0 16 16" fill="none" xmlns="http://www.w3.org/2000/svg">
<path fill-rule="evenodd" clip-rule="evenodd" d="M7.98951 15C11.8503 15 14.98 11.866 14.98 8C14.98 4.13401 11.8503 1 7.98951 1C4.12877 1 0.999023 4.13401 0.999023 8C0.999023 11.866 4.12877 15 7.98951 15ZM10.8838 5.40472C11.0457 5.18118 11.358 5.1314 11.5812 5.29353C11.8044 5.45566 11.8541 5.7683 11.6922 5.99184L8.12693 10.9142C8.02444 11.0557 7.86172 11.1276 7.69947 11.1202C7.54984 11.1166 7.40343 11.0461 7.30813 10.9158L5.24231 8.09273C5.07932 7.86999 5.12751 7.55711 5.34995 7.39389C5.57239 7.23067 5.88485 7.27893 6.04785 7.50167L7.71491 9.77984L10.8838 5.40472Z" fill="black"/>
</svg>
