<svg width="16" height="16" viewBox="0 0 16 16" fill="none" xmlns="http://www.w3.org/2000/svg">
<path fill-rule="evenodd" clip-rule="evenodd" d="M1.99707 2.5C1.99707 2.22386 2.22062 2 2.49639 2H13.4814C13.7572 2 13.9808 2.22386 13.9808 2.5V3.82461C13.9808 3.93815 13.9422 4.0483 13.8713 4.13696L10.0956 8.86304C10.0248 8.9517 9.9862 9.06185 9.9862 9.17539V13.5C9.9862 13.7761 9.76265 14 9.48688 14H6.49096C6.21519 14 5.99164 13.7761 5.99164 13.5V9.17737C5.99164 9.06262 5.95222 8.95137 5.88002 8.86228L2.10869 4.20915C2.03648 4.12005 1.99707 4.0088 1.99707 3.89406V2.5Z" fill="black"/>
</svg>
