<svg width="16" height="16" viewBox="0 0 16 16" fill="none" xmlns="http://www.w3.org/2000/svg">
<path fill-rule="evenodd" clip-rule="evenodd" d="M9.6025 2.64887C10.6072 1.64276 12.2363 1.64276 13.241 2.64887C14.2457 3.65498 14.2457 5.28621 13.241 6.29232L12.8896 6.64415L12.8926 6.64709L6.17695 13.3718L1.99707 13.9109L2.53481 9.72475L9.25043 3L9.25114 3.00071L9.6025 2.64887ZM12.5349 5.58521L12.185 5.93559L9.95874 3.70635L10.3086 3.35598C10.9234 2.74039 11.9201 2.74039 12.5349 3.35598C13.1496 3.97156 13.1496 4.96963 12.5349 5.58521ZM5.71161 12.4236L3.1526 12.7536L3.48183 10.1907L9.25043 4.41421L11.4803 6.64709L5.71161 12.4236Z" fill="black"/>
</svg>
