<svg width="16" height="16" viewBox="0 0 16 16" fill="none" xmlns="http://www.w3.org/2000/svg">
<path fill-rule="evenodd" clip-rule="evenodd" d="M8.72507 2.06427C8.32928 1.6319 7.64857 1.6319 7.25277 2.06427L2.12832 7.66218C1.94197 7.86574 1.95571 8.18202 2.15899 8.36862C2.36227 8.55522 2.67813 8.54147 2.86447 8.33791L2.99571 8.19454V13C2.99571 13.5523 3.44282 14 3.99436 14H11.9835C12.535 14 12.9821 13.5523 12.9821 13V8.19454L13.1134 8.33791C13.2997 8.54147 13.6156 8.55522 13.8189 8.36862C14.0221 8.18202 14.0359 7.86574 13.8495 7.66218L8.72507 2.06427ZM11.9835 7.10363L7.98892 2.73999L3.99436 7.10363V13H11.9835V7.10363Z" fill="black"/>
</svg>
