<svg width="16" height="16" viewBox="0 0 16 16" fill="none" xmlns="http://www.w3.org/2000/svg">
<path d="M12.9824 7.50617C12.9824 7.78193 12.7589 8.00548 12.4831 8.00548C12.2073 8.00548 11.9838 7.78193 11.9838 7.50617L11.9838 3.50481C11.9838 3.22904 12.2073 3.00549 12.4831 3.00549C12.7589 3.00549 12.9824 3.22904 12.9824 3.50481L12.9824 7.50617Z" fill="black"/>
<path d="M8.48925 4.00553C8.21311 4.00553 7.98926 3.78168 7.98926 3.50554C7.98926 3.2294 8.21311 3.00555 8.48925 3.00555L12.4831 3.00549C12.7589 3.00549 12.9824 3.22904 12.9824 3.50481C12.9824 3.78095 12.7586 4.00554 12.4825 4.00554L8.48925 4.00553Z" fill="black"/>
<path d="M9.14183 7.54032C8.95024 7.73217 8.63961 7.73217 8.44802 7.54032C8.25643 7.34847 8.25643 7.03741 8.44802 6.84556L11.6366 3.65263C11.8282 3.46078 12.1388 3.46078 12.3304 3.65263C12.522 3.84448 12.522 4.15553 12.3304 4.34738L9.14183 7.54032Z" fill="black"/>
<path d="M2.99609 8.49931C2.99609 8.22355 3.21965 8 3.49541 8C3.77117 8 3.99472 8.22355 3.99472 8.49931L3.99472 12.5007C3.99472 12.7764 3.77117 13 3.49541 13C3.21964 13 2.99609 12.7764 2.99609 12.5007L2.99609 8.49931Z" fill="black"/>
<path d="M7.48927 12C7.7654 12 7.98926 12.2239 7.98926 12.5C7.98926 12.7761 7.7654 13 7.48926 13H3.49541C3.21964 13 2.99609 12.7764 2.99609 12.5007C2.99609 12.2245 3.21991 12 3.49605 12L7.48927 12Z" fill="black"/>
<path d="M6.83669 8.46518C7.02828 8.27332 7.33891 8.27332 7.5305 8.46518C7.72209 8.65703 7.72209 8.96808 7.5305 9.15993L4.3419 12.3529C4.15031 12.5447 3.83968 12.5447 3.64809 12.3529C3.4565 12.161 3.4565 11.85 3.64809 11.6581L6.83669 8.46518Z" fill="black"/>
</svg>
