<svg width="16" height="16" viewBox="0 0 16 16" fill="none" xmlns="http://www.w3.org/2000/svg">
<path fill-rule="evenodd" clip-rule="evenodd" d="M1.99707 3.5C1.99707 3.22386 2.22062 3 2.49639 3L13.4814 3C13.7572 3 13.9808 3.22386 13.9808 3.5C13.9808 3.77614 13.7572 4 13.4814 4L2.49639 4C2.22062 4 1.99707 3.77614 1.99707 3.5Z" fill="black"/>
<path fill-rule="evenodd" clip-rule="evenodd" d="M1.99805 8C1.99805 7.72386 2.2216 7.5 2.49737 7.5L13.4824 7.5C13.7582 7.5 13.9817 7.72386 13.9817 8C13.9817 8.27614 13.7582 8.5 13.4824 8.5L2.49737 8.5C2.2216 8.5 1.99805 8.27614 1.99805 8Z" fill="black"/>
<path fill-rule="evenodd" clip-rule="evenodd" d="M1.99707 12.5C1.99707 12.2239 2.22062 12 2.49639 12L13.4814 12C13.7572 12 13.9808 12.2239 13.9808 12.5C13.9808 12.7761 13.7572 13 13.4814 13L2.49639 13C2.22062 13 1.99707 12.7761 1.99707 12.5Z" fill="black"/>
</svg>
