<svg width="16" height="16" viewBox="0 0 16 16" fill="none" xmlns="http://www.w3.org/2000/svg">
<path fill-rule="evenodd" clip-rule="evenodd" d="M3.17235 12.1221C2.97251 12.3227 2.97251 12.648 3.17235 12.8486C3.37218 13.0492 3.69618 13.0492 3.89602 12.8486L7.98916 8.73938L12.0829 12.8492C12.2827 13.0498 12.6067 13.0498 12.8066 12.8492C13.0064 12.6486 13.0064 12.3233 12.8066 12.1227L8.71283 8.01287L12.8329 3.87661C13.0328 3.67599 13.0328 3.35072 12.8329 3.1501C12.6331 2.94948 12.3091 2.94948 12.1093 3.1501L7.98916 7.28637L3.86964 3.15069C3.6698 2.95007 3.34581 2.95007 3.14597 3.15069C2.94613 3.35131 2.94613 3.67658 3.14597 3.8772L7.26549 8.01287L3.17235 12.1221Z" fill="black"/>
</svg>
