<svg width="16" height="16" viewBox="0 0 16 16" fill="none" xmlns="http://www.w3.org/2000/svg">
<path fill-rule="evenodd" clip-rule="evenodd" d="M7.98951 14C11.2987 14 13.9814 11.3137 13.9814 8C13.9814 4.68629 11.2987 2 7.98951 2C4.68031 2 1.99766 4.68629 1.99766 8C1.99766 11.3137 4.68031 14 7.98951 14ZM7.98951 15C11.8503 15 14.98 11.866 14.98 8C14.98 4.13401 11.8503 1 7.98951 1C4.12877 1 0.999023 4.13401 0.999023 8C0.999023 11.866 4.12877 15 7.98951 15Z" fill="black"/>
<path fill-rule="evenodd" clip-rule="evenodd" d="M11.2714 5.09043C11.4973 5.24878 11.5523 5.56055 11.3941 5.78677L8.06653 10.547C7.78436 10.9506 7.18513 10.9438 6.9122 10.5338L5.07708 7.77739C4.92411 7.54763 4.98611 7.23719 5.21556 7.08402C5.44502 6.93084 5.75503 6.99293 5.908 7.22269L7.49988 9.61376L10.576 5.21331C10.7341 4.98709 11.0455 4.93207 11.2714 5.09043Z" fill="black"/>
</svg>
