<svg width="16" height="16" viewBox="0 0 16 16" fill="none" xmlns="http://www.w3.org/2000/svg">
<path fill-rule="evenodd" clip-rule="evenodd" d="M10.8231 10.6887C10.56 10.7714 10.2797 10.6249 10.1971 10.3614C10.1146 10.0979 10.2609 9.8173 10.524 9.73461L13.2636 8.87354C13.3564 8.84438 13.4513 8.84373 13.5389 8.86666C13.7186 8.89459 13.8765 9.02015 13.9371 9.20502L14.8323 11.937C14.9182 12.1994 14.7755 12.4818 14.5135 12.5679C14.2515 12.654 13.9694 12.5111 13.8834 12.2487L13.3692 10.6794C12.9672 11.4835 12.3875 12.1925 11.6672 12.7488C10.5843 13.5851 9.24868 14.0262 7.88136 13.9989C6.51404 13.9717 5.19699 13.4778 4.14817 12.5989C3.22838 11.8282 2.56324 10.802 2.23283 9.65535C2.15581 9.38805 2.33463 9.12188 2.60708 9.06739C2.87953 9.0129 3.14205 9.19098 3.22357 9.45694C3.5061 10.3787 4.04992 11.2029 4.79385 11.8263C5.6669 12.5578 6.76321 12.969 7.90138 12.9916C9.03954 13.0143 10.1513 12.6472 11.0527 11.951C11.6724 11.4724 12.1671 10.8581 12.5026 10.1608L10.8231 10.6887Z" fill="black"/>
<path fill-rule="evenodd" clip-rule="evenodd" d="M2.44774 7.11053C2.26787 7.08274 2.1097 6.95712 2.04907 6.77209L1.15393 4.04013C1.06796 3.77775 1.21067 3.49527 1.47269 3.40918C1.73471 3.3231 2.01682 3.46601 2.10279 3.72838L2.61712 5.29812C3.0191 4.49385 3.59889 3.78476 4.31924 3.22841C5.40215 2.39205 6.73778 1.95099 8.1051 1.97824C9.47241 2.00549 10.7895 2.4994 11.8383 3.37825C12.7581 4.14897 13.4232 5.17522 13.7536 6.32182C13.8306 6.58912 13.6518 6.85529 13.3794 6.90978C13.1069 6.96427 12.8444 6.78619 12.7629 6.52023C12.4804 5.59845 11.9365 4.77427 11.1926 4.1509C10.3196 3.41935 9.22324 3.00821 8.08508 2.98553C6.94691 2.96285 5.83513 3.32998 4.93371 4.02618C4.3141 4.50473 3.81941 5.11904 3.48388 5.81624L5.16325 5.28841C5.42636 5.20571 5.7066 5.35225 5.78918 5.61572C5.87176 5.87918 5.72542 6.1598 5.46231 6.2425L2.72274 7.10356C2.63007 7.13269 2.53528 7.13338 2.44774 7.11053Z" fill="black"/>
</svg>
