<svg width="11" height="14" viewBox="0 0 11 14" fill="none" xmlns="http://www.w3.org/2000/svg">
<path d="M4.50098 0.5C4.77712 0.5 5.00098 0.723858 5.00098 1C5.00098 1.27614 4.77712 1.5 4.50098 1.5L3.50098 1.5C3.22483 1.5 3.00098 1.27614 3.00098 1C3.00098 0.723858 3.22483 0.5 3.50098 0.5L4.50098 0.5Z" fill="black"/>
<path fill-rule="evenodd" clip-rule="evenodd" d="M1 1H7V2.29565H8V1C8 0.447715 7.55228 0 7 0H1C0.447715 0 0 0.447716 0 1V13C0 13.5523 0.447715 14 1 14H7C7.55228 14 8 13.5523 8 13V11H3L1 11V1ZM4.75 12.4968C4.75 12.911 4.41421 13.2468 4 13.2468C3.58579 13.2468 3.25 12.911 3.25 12.4968C3.25 12.0826 3.58579 11.7468 4 11.7468C4.41421 11.7468 4.75 12.0826 4.75 12.4968Z" fill="black"/>
<path fill-rule="evenodd" clip-rule="evenodd" d="M5.42939 3.26611C5.13356 3.26611 4.90926 3.49929 4.90926 3.76796V7.27442C4.90926 7.44692 4.82034 7.60724 4.67401 7.69858C4.52767 7.78992 4.34459 7.79938 4.18963 7.7236L3.38683 7.33107C3.21877 7.24845 3.02074 7.24516 2.84977 7.32235C2.67938 7.39927 2.55745 7.54607 2.51361 7.71791C2.4579 7.93868 2.53727 8.17428 2.7243 8.32031L2.72549 8.32124L4.71815 9.8868C4.93529 10.0574 4.97302 10.3717 4.80242 10.5889C4.63183 10.806 4.3175 10.8437 4.10036 10.6731L2.10889 9.10852C2.10866 9.10833 2.10913 9.1087 2.10889 9.10852C1.61404 8.72172 1.38997 8.08225 1.54421 7.47242C1.66422 7.0007 1.99494 6.61109 2.43829 6.41093C2.88102 6.21105 3.39157 6.21926 3.82756 6.43343C3.8274 6.43335 3.82772 6.43351 3.82756 6.43343L3.90926 6.47338V3.76796C3.90926 2.93003 4.59841 2.26611 5.42939 2.26611C6.26037 2.26611 6.94952 2.93003 6.94952 3.76796V5.34681L7.88566 5.49996C9.10473 5.69941 10.0098 6.73871 10.0099 7.96967V10.28C10.0099 10.5561 9.78606 10.78 9.50992 10.78C9.23378 10.78 9.00992 10.5561 9.00992 10.28V7.96974C9.00992 7.96973 9.00992 7.96975 9.00992 7.96974C9.00985 7.24176 8.47273 6.60931 7.72421 6.48684C7.72421 6.48684 7.72422 6.48684 7.72421 6.48684L6.3688 6.26509C6.12703 6.22554 5.94952 6.01664 5.94952 5.77165V3.76796C5.94952 3.49929 5.72521 3.26611 5.42939 3.26611Z" fill="black"/>
</svg>
