<svg width="16" height="16" viewBox="0 0 16 16" fill="none" xmlns="http://www.w3.org/2000/svg">
<path fill-rule="evenodd" clip-rule="evenodd" d="M2.03906 3.54028C2.03906 2.71186 2.71064 2.04028 3.53906 2.04028H6.00015V3.04028H3.53906C3.26292 3.04028 3.03906 3.26414 3.03906 3.54028V12.4686C3.03906 12.7448 3.26292 12.9686 3.53906 12.9686H6.00015V13.9686H3.53906C2.71064 13.9686 2.03906 13.2971 2.03906 12.4686V3.54028Z" fill="black"/>
<path fill-rule="evenodd" clip-rule="evenodd" d="M13.0362 13.8555C12.8587 13.9291 12.6644 13.9695 12.4619 13.9695L11.8466 13.9695L11.8466 12.9695L12.4619 12.9695C12.5306 12.9695 12.5949 12.9559 12.6532 12.9317L13.0362 13.8555ZM10.6158 13.9695L10.0005 13.9695L10.0005 12.9695L10.6158 12.9695L10.6158 13.9695ZM13.9619 12.4695C13.9619 12.6719 13.9215 12.8662 13.8479 13.0438L12.9242 12.6607C12.9483 12.6025 12.9619 12.5382 12.9619 12.4695L12.9619 11.9115L13.9619 11.9115L13.9619 12.4695ZM13.9619 9.67937L13.9619 10.7954L12.9619 10.7954L12.9619 9.67937L13.9619 9.67937ZM13.9619 7.44729L13.9619 8.56333L12.9619 8.56333L12.9619 7.44729L13.9619 7.44729ZM13.9619 5.2152L13.9619 6.33124L12.9619 6.33124L12.9619 5.2152L13.9619 5.2152ZM13.9619 3.54114L13.9619 4.09916L12.9619 4.09916L12.9619 3.54114C12.9619 3.47242 12.9483 3.40814 12.9242 3.34988L13.8479 2.96682C13.9215 3.14438 13.9619 3.33867 13.9619 3.54114ZM12.4619 2.04114C12.6644 2.04114 12.8587 2.08152 13.0362 2.15515L12.6532 3.07888C12.5949 3.05472 12.5306 3.04114 12.4619 3.04114L11.8466 3.04114L11.8466 2.04114L12.4619 2.04114ZM10.0005 2.04114L10.6158 2.04114L10.6158 3.04114L10.0005 3.04114L10.0005 2.04114Z" fill="black"/>
<path fill-rule="evenodd" clip-rule="evenodd" d="M7.54687 15L7.54688 1.00537L8.54688 1.00537L8.54687 15L7.54687 15Z" fill="black"/>
</svg>
