<svg width="16" height="16" viewBox="0 0 16 16" fill="none" xmlns="http://www.w3.org/2000/svg">
<path fill-rule="evenodd" clip-rule="evenodd" d="M3.03282 13.9775C2.48129 13.9775 2.03418 13.5298 2.03418 12.9775L2.03418 11C2.03418 10.7239 2.25773 10.5 2.5335 10.5C2.80927 10.5 3.03282 10.7239 3.03282 11L3.03282 12.9775L13.041 12.9775V11C13.041 10.7239 13.2646 10.5 13.5403 10.5C13.8161 10.5 14.0397 10.7239 14.0397 11V12.9775C14.0397 13.5298 13.5925 13.9775 13.041 13.9775L3.03282 13.9775Z" fill="black"/>
<path fill-rule="evenodd" clip-rule="evenodd" d="M11.8372 6.64645C12.0321 6.84171 12.0321 7.15829 11.8372 7.35355L8.3422 10.8533C8.3421 10.8534 8.342 10.8535 8.34191 10.8536C8.14691 11.0488 7.83076 11.0488 7.63576 10.8536L4.14052 7.35355C3.94552 7.15829 3.94552 6.84171 4.14052 6.64645C4.33551 6.45118 4.65167 6.45118 4.84666 6.64645L7.48775 9.29112L7.48951 2.49987C7.48959 2.22373 7.7132 1.99993 7.98896 2C8.26473 2.00007 8.48823 2.22399 8.48815 2.50013L8.48639 9.29466L11.131 6.64645C11.326 6.45118 11.6422 6.45118 11.8372 6.64645Z" fill="black"/>
</svg>
