<svg width="16" height="16" viewBox="0 0 16 16" fill="none" xmlns="http://www.w3.org/2000/svg">
<path fill-rule="evenodd" clip-rule="evenodd" d="M4.14039 6.35355C3.94539 6.15829 3.94539 5.84171 4.14039 5.64645L7.63534 2.14674C7.63544 2.14664 7.63554 2.14654 7.63563 2.14645C7.83063 1.95118 8.14678 1.95118 8.34178 2.14645L11.837 5.64645C12.032 5.84171 12.032 6.15829 11.837 6.35355C11.642 6.54882 11.3259 6.54882 11.1309 6.35355L8.48979 3.70887L8.48803 10.5001C8.48795 10.7763 8.26434 11.0001 7.98858 11C7.71281 10.9999 7.48931 10.776 7.48939 10.4999L7.49115 3.70534L4.84653 6.35355C4.65154 6.54882 4.33539 6.54882 4.14039 6.35355Z" fill="black"/>
<path fill-rule="evenodd" clip-rule="evenodd" d="M3.03282 13.9775C2.48129 13.9775 2.03418 13.5298 2.03418 12.9775L2.03418 11C2.03418 10.7239 2.25773 10.5 2.5335 10.5C2.80927 10.5 3.03282 10.7239 3.03282 11L3.03282 12.9775L13.041 12.9775V11C13.041 10.7239 13.2646 10.5 13.5403 10.5C13.8161 10.5 14.0397 10.7239 14.0397 11V12.9775C14.0397 13.5298 13.5925 13.9775 13.041 13.9775L3.03282 13.9775Z" fill="black"/>
</svg>
