<svg width="16" height="16" viewBox="0 0 16 16" fill="none" xmlns="http://www.w3.org/2000/svg">
<path fill-rule="evenodd" clip-rule="evenodd" d="M8.31465 3H2.99571V3.7167L6.65542 8.23211C6.87204 8.49939 6.99028 8.83314 6.99028 9.17737V13H8.98756V9.85133H9.9862V13.5C9.9862 13.7761 9.76265 14 9.48688 14H6.49096C6.21519 14 5.99164 13.7761 5.99164 13.5V9.17737C5.99164 9.06262 5.95222 8.95137 5.88002 8.86228L2.10869 4.20915C2.03648 4.12005 1.99707 4.0088 1.99707 3.89406V2.5C1.99707 2.22386 2.22062 2 2.49639 2H13.4814C13.7572 2 13.9808 2.22386 13.9808 2.5V2.99316H8.31465V3Z" fill="black"/>
<path fill-rule="evenodd" clip-rule="evenodd" d="M9.87723 3.64669C9.6821 3.45129 9.36552 3.45108 9.17012 3.64621C8.97473 3.84134 8.97451 4.15792 9.16964 4.35331L11.3134 6.5L9.16964 8.64669C8.97451 8.84208 8.97473 9.15866 9.17012 9.35379C9.36552 9.54892 9.6821 9.54871 9.87723 9.35331L12.02 7.20759L14.1629 9.35331C14.358 9.54871 14.6746 9.54892 14.87 9.35379C15.0654 9.15866 15.0656 8.84208 14.8704 8.64669L12.7267 6.5L14.8704 4.35331C15.0656 4.15792 15.0654 3.84134 14.87 3.64621C14.6746 3.45108 14.358 3.45129 14.1629 3.64669L12.02 5.79241L9.87723 3.64669Z" fill="black"/>
</svg>
