<svg width="16" height="16" viewBox="0 0 16 16" fill="none" xmlns="http://www.w3.org/2000/svg">
<path fill-rule="evenodd" clip-rule="evenodd" d="M12.9825 14.5C12.9825 14.7761 12.759 15 12.4832 15H3.49541C3.21965 15 2.99609 14.7761 2.99609 14.5V1.5C2.99609 1.22386 3.21965 1 3.49541 1H9.74938C9.90692 1 10.0552 1.07444 10.1495 1.20084L12.8833 4.86692C12.9477 4.95332 12.9825 5.05826 12.9825 5.16608V14.5ZM11.9839 6H9.48726C9.2115 6 8.98794 5.77614 8.98794 5.5V2H3.99474V14H11.9839V6ZM11.7362 5L9.98658 2.65377V5H11.7362Z" fill="black"/>
</svg>
