<svg width="16" height="16" viewBox="0 0 16 16" fill="none" xmlns="http://www.w3.org/2000/svg">
<path fill-rule="evenodd" clip-rule="evenodd" d="M7.98951 14C11.2987 14 13.9814 11.3137 13.9814 8C13.9814 4.68629 11.2987 2 7.98951 2C4.68031 2 1.99766 4.68629 1.99766 8C1.99766 11.3137 4.68031 14 7.98951 14ZM7.98951 15C11.8503 15 14.98 11.866 14.98 8C14.98 4.13401 11.8503 1 7.98951 1C4.12877 1 0.999023 4.13401 0.999023 8C0.999023 11.866 4.12877 15 7.98951 15Z" fill="black"/>
<path d="M8.43542 9.91479H7.25636C7.26058 9.50854 7.2965 9.17635 7.36412 8.91821C7.43596 8.65584 7.55218 8.41675 7.71277 8.20093C7.87336 7.98511 8.08677 7.73966 8.35301 7.4646C8.54741 7.26571 8.7249 7.07951 8.88549 6.90601C9.0503 6.72827 9.18342 6.53784 9.28485 6.33472C9.38627 6.12736 9.43698 5.8798 9.43698 5.59204C9.43698 5.30005 9.38416 5.04826 9.27851 4.83667C9.17708 4.62508 9.02495 4.46216 8.8221 4.3479C8.62347 4.23364 8.37625 4.17651 8.08043 4.17651C7.83532 4.17651 7.60289 4.22095 7.38314 4.30981C7.16338 4.39868 6.98589 4.53621 6.85066 4.72241C6.71543 4.90438 6.6457 5.14347 6.64147 5.4397H5.46875C5.4772 4.96151 5.59553 4.55103 5.82374 4.20825C6.05617 3.86548 6.36889 3.60311 6.76191 3.42114C7.15493 3.23918 7.59444 3.14819 8.08043 3.14819C8.61714 3.14819 9.07355 3.24552 9.44966 3.44019C9.83 3.63485 10.1195 3.91414 10.3181 4.27808C10.5167 4.63778 10.616 5.06519 10.616 5.5603C10.616 5.94116 10.5379 6.2924 10.3815 6.61401C10.2294 6.9314 10.0329 7.22974 9.79197 7.50903C9.55109 7.78833 9.29541 8.05493 9.02495 8.30884C8.79252 8.52466 8.63615 8.76798 8.55586 9.03882C8.47556 9.30965 8.43542 9.60164 8.43542 9.91479ZM7.20564 11.927C7.20564 11.7366 7.26481 11.5758 7.38314 11.4446C7.50147 11.3134 7.67262 11.2478 7.8966 11.2478C8.1248 11.2478 8.29807 11.3134 8.4164 11.4446C8.53473 11.5758 8.59389 11.7366 8.59389 11.927C8.59389 12.109 8.53473 12.2655 8.4164 12.3967C8.29807 12.5279 8.1248 12.5935 7.8966 12.5935C7.67262 12.5935 7.50147 12.5279 7.38314 12.3967C7.26481 12.2655 7.20564 12.109 7.20564 11.927Z" fill="black"/>
</svg>
