<svg width="16" height="16" viewBox="0 0 16 16" fill="none" xmlns="http://www.w3.org/2000/svg">
<path fill-rule="evenodd" clip-rule="evenodd" d="M10.3197 2.86898L9.62503 1.00027L6.36082 1L5.66453 2.86898L4.5434 3.45471L2.5205 3.18625L0.999023 5.84605L2.23041 7.38847L2.1641 8.5836L0.999023 10.2327L2.51444 12.7815L4.56821 12.5299L5.65935 13.1534L6.49089 15.0003H9.5934L10.3197 13.1534L11.385 12.5299L13.476 12.7815L14.98 10.2205L13.8149 8.5836V7.41694L14.98 5.7785L13.398 3.15573L11.4848 3.45471L10.3197 2.86898ZM12.8897 4.24726L11.3226 4.49215L9.52073 3.58627L8.93115 2.00021L7.05412 2.00006L6.46623 3.57805L4.72531 4.48759L3.05385 4.26577L2.20318 5.75289L3.24867 7.06247L3.14527 8.92631L2.18916 10.2796L3.03944 11.7097L4.7756 11.497L6.4363 12.446L7.13609 14.0003H8.91337L9.51719 12.4648L11.1708 11.4969L12.9464 11.7106L13.7908 10.2727L12.8163 8.9035V7.09728L13.7861 5.7334L12.8897 4.24726Z" fill="black"/>
<path fill-rule="evenodd" clip-rule="evenodd" d="M7.98985 9.91756C9.04696 9.91756 9.90391 9.05944 9.90391 8.0009C9.90391 6.94235 9.04696 6.08423 7.98985 6.08423C6.93274 6.08423 6.07579 6.94235 6.07579 8.0009C6.07579 9.05944 6.93274 9.91756 7.98985 9.91756ZM7.98985 10.9176C9.59849 10.9176 10.9026 9.61173 10.9026 8.0009C10.9026 6.39006 9.59849 5.08423 7.98985 5.08423C6.38121 5.08423 5.07715 6.39006 5.07715 8.0009C5.07715 9.61173 6.38121 10.9176 7.98985 10.9176Z" fill="black"/>
</svg>
