<svg width="16" height="16" viewBox="0 0 16 16" fill="none" xmlns="http://www.w3.org/2000/svg">
<path fill-rule="evenodd" clip-rule="evenodd" d="M8.98849 5H10.9854C12.64 5 13.9814 6.34315 13.9814 8C13.9814 9.65685 12.64 11 10.9854 11H8.98849V12L10.9854 12C13.1916 12 14.98 10.2091 14.98 8C14.98 5.79086 13.1916 4 10.9854 4H8.98849V5ZM6.99121 5V4H4.99359C2.78745 4 0.999023 5.79086 0.999023 8C0.999023 10.2091 2.78745 12 4.99359 12L6.99121 12V11H4.99359C3.33899 11 1.99766 9.65685 1.99766 8C1.99766 6.34315 3.33899 5 4.99359 5H6.99121Z" fill="black"/>
<path fill-rule="evenodd" clip-rule="evenodd" d="M4.99512 8C4.99512 7.72386 5.21867 7.5 5.49444 7.5H10.4876C10.7634 7.5 10.987 7.72386 10.987 8C10.987 8.27614 10.7634 8.5 10.4876 8.5H5.49444C5.21867 8.5 4.99512 8.27614 4.99512 8Z" fill="black"/>
</svg>
