<svg width="16" height="16" viewBox="0 0 16 16" fill="none" xmlns="http://www.w3.org/2000/svg">
<mask id="path-1-inside-1_617_749" fill="white">
<path fill-rule="evenodd" clip-rule="evenodd" d="M9.98578 13H13.2872C13.6284 13 13.8709 12.6665 13.7686 12.341C13.4754 11.4085 12.982 9.7524 12.982 9.16667V6C12.982 4.66667 11.9834 1 7.98881 1C3.99425 1 2.99561 4.5 2.99561 5.83333V9C2.99561 9.70388 2.50084 11.3986 2.20781 12.3406C2.10647 12.6664 2.34919 13 2.69038 13H5.99121C5.99121 14.1046 6.88542 15 7.98849 15C9.09156 15 9.98578 14.1046 9.98578 13Z"/>
</mask>
<path fill-rule="evenodd" clip-rule="evenodd" d="M9.98578 13H13.2872C13.6284 13 13.8709 12.6665 13.7686 12.341C13.4754 11.4085 12.982 9.7524 12.982 9.16667V6C12.982 4.66667 11.9834 1 7.98881 1C3.99425 1 2.99561 4.5 2.99561 5.83333V9C2.99561 9.70388 2.50084 11.3986 2.20781 12.3406C2.10647 12.6664 2.34919 13 2.69038 13H5.99121C5.99121 14.1046 6.88542 15 7.98849 15C9.09156 15 9.98578 14.1046 9.98578 13Z" fill="black"/>
<path d="M9.98578 13V12H8.98578V13H9.98578ZM13.7686 12.341L14.7225 12.041V12.041L13.7686 12.341ZM2.99561 9H1.99561V9L2.99561 9ZM2.20781 12.3406L3.16268 12.6377H3.16268L2.20781 12.3406ZM5.99121 13H6.99121V12H5.99121V13ZM13.2872 12H9.98578V14H13.2872V12ZM12.8146 12.6409C12.7164 12.3286 12.9463 12 13.2872 12V14C14.3106 14 15.0254 13.0043 14.7225 12.041L12.8146 12.6409ZM11.982 9.16667C11.982 9.41901 12.0307 9.71485 12.0834 9.97622C12.1397 10.2556 12.216 10.5678 12.2987 10.8799C12.4644 11.5051 12.6662 12.1688 12.8146 12.6409L14.7225 12.041C14.5778 11.5808 14.3863 10.9501 14.232 10.3677C14.1547 10.076 14.0893 9.80611 14.044 9.58105C13.995 9.33802 13.982 9.20719 13.982 9.16667H11.982ZM11.982 6V9.16667H13.982V6H11.982ZM7.98881 2C9.62137 2 10.5769 2.72411 11.1608 3.56869C11.7813 4.46614 11.982 5.51247 11.982 6H13.982C13.982 5.1542 13.6834 3.70053 12.8059 2.43131C11.8919 1.10922 10.3508 0 7.98881 0V2ZM3.99561 5.83333C3.99561 5.35049 4.19365 4.35231 4.80616 3.50045C5.38108 2.70086 6.33636 2 7.98881 2V0C5.6467 0 4.10538 1.04914 3.18234 2.33289C2.29688 3.56436 1.99561 4.98284 1.99561 5.83333H3.99561ZM3.99561 9V5.83333H1.99561V9H3.99561ZM3.16268 12.6377C3.31147 12.1593 3.51417 11.4815 3.68065 10.8278C3.83681 10.2148 3.99561 9.49656 3.99561 9L1.99561 9C1.99561 9.20732 1.90702 9.68842 1.74254 10.3342C1.58838 10.9394 1.39718 11.5799 1.25294 12.0436L3.16268 12.6377ZM2.69038 12C3.03169 12 3.25906 12.3278 3.16268 12.6377L1.25294 12.0436C0.953877 13.005 1.66669 14 2.69038 14V12ZM5.99121 12H2.69038V14H5.99121V12ZM4.99121 13C4.99121 14.6556 6.33186 16 7.98849 16V14C7.43899 14 6.99121 13.5536 6.99121 13H4.99121ZM7.98849 16C9.64513 16 10.9858 14.6556 10.9858 13H8.98578C8.98578 13.5536 8.538 14 7.98849 14V16Z" fill="black" mask="url(#path-1-inside-1_617_749)"/>
</svg>
