<svg width="16" height="16" viewBox="0 0 16 16" fill="none" xmlns="http://www.w3.org/2000/svg">
<path fill-rule="evenodd" clip-rule="evenodd" d="M7.49219 12.5C7.49219 12.7762 7.71574 13 7.99151 13C8.26728 13 8.49083 12.7762 8.49083 12.5V8.50005H12.4832C12.759 8.50005 12.9825 8.27619 12.9825 8.00005C12.9825 7.72391 12.759 7.50005 12.4832 7.50005H8.49083V3.49988C8.49083 3.22374 8.26728 2.99988 7.99151 2.99988C7.71574 2.99988 7.49219 3.22374 7.49219 3.49988V7.50005H3.49541C3.21965 7.50005 2.99609 7.72391 2.99609 8.00005C2.99609 8.27619 3.21965 8.50005 3.49541 8.50005H7.49219V12.5Z" fill="black"/>
</svg>
