<svg width="16" height="16" viewBox="0 0 16 16" fill="none" xmlns="http://www.w3.org/2000/svg">
<path fill-rule="evenodd" clip-rule="evenodd" d="M3.49512 7C3.49512 6.72386 3.71867 6.5 3.99444 6.5L4.99308 6.5C5.26885 6.5 5.4924 6.72386 5.4924 7C5.4924 7.27614 5.26885 7.5 4.99308 7.5L3.99444 7.5C3.71867 7.5 3.49512 7.27614 3.49512 7Z" fill="black"/>
<path fill-rule="evenodd" clip-rule="evenodd" d="M4.99299 5V3H10.9848V5H4.99299ZM3.99435 5V2.5C3.99435 2.22386 4.21791 2 4.49367 2H11.4842C11.7599 2 11.9835 2.22386 11.9835 2.5V5H13.4814C13.7572 5 13.9808 5.22386 13.9808 5.5V11.5C13.9808 11.7761 13.7572 12 13.4814 12H11.9835V13.5C11.9835 13.7761 11.7599 14 11.4842 14H4.49367C4.21791 14 3.99435 13.7761 3.99435 13.5V12H2.49639C2.22062 12 1.99707 11.7761 1.99707 11.5V5.5C1.99707 5.22386 2.22062 5 2.49639 5H3.99435ZM11.4842 6H4.49367H2.99571V11H3.99435V9.5C3.99435 9.22386 4.21791 9 4.49367 9H11.4842C11.7599 9 11.9835 9.22386 11.9835 9.5V11H12.9821V6H11.4842ZM4.99299 13H10.9848V10H4.99299V13Z" fill="black"/>
</svg>
