<svg width="16" height="16" viewBox="0 0 16 16" fill="none" xmlns="http://www.w3.org/2000/svg">
<path fill-rule="evenodd" clip-rule="evenodd" d="M7.99805 9.24902C8.6884 9.24902 9.24805 8.68938 9.24805 7.99902C9.24805 7.30867 8.6884 6.74902 7.99805 6.74902C7.30769 6.74902 6.74805 7.30867 6.74805 7.99902C6.74805 8.68938 7.30769 9.24902 7.99805 9.24902ZM10.248 7.99902C10.248 9.24166 9.24069 10.249 7.99805 10.249C6.75541 10.249 5.74805 9.24166 5.74805 7.99902C5.74805 6.75638 6.75541 5.74902 7.99805 5.74902C9.24069 5.74902 10.248 6.75638 10.248 7.99902Z" fill="black"/>
<path fill-rule="evenodd" clip-rule="evenodd" d="M12.1173 6.07762C10.8441 5.08678 9.31223 4.32812 8 4.32812C6.68777 4.32812 5.15594 5.08678 3.88271 6.07762C3.26273 6.5601 2.75025 7.06235 2.40324 7.48284C2.22881 7.69421 2.1107 7.86742 2.04163 7.99258C2.04096 7.99379 2.04031 7.99498 2.03966 7.99616C2.04031 7.99735 2.04097 7.99855 2.04164 7.99976C2.11068 8.12492 2.22875 8.29812 2.40312 8.50947C2.75002 8.92994 3.26236 9.43217 3.88223 9.91462C5.15517 10.9054 6.68701 11.6641 8 11.6641C9.31299 11.6641 10.8448 10.9054 12.1178 9.91462C12.7376 9.43217 13.25 8.92994 13.5969 8.50947C13.7713 8.29812 13.8893 8.12492 13.9584 7.99976C13.959 7.99855 13.9597 7.99735 13.9603 7.99616C13.9597 7.99498 13.959 7.99379 13.9584 7.99259C13.8893 7.86742 13.7712 7.69421 13.5968 7.48284C13.2498 7.06235 12.7373 6.5601 12.1173 6.07762ZM8 3.32812C11.2838 3.32812 15 6.99962 15 7.99611C15 8.9926 11.2853 12.6641 8 12.6641C4.71474 12.6641 1 8.9926 1 7.99611C1 6.99962 4.71616 3.32812 8 3.32812Z" fill="black"/>
</svg>
