<svg width="16" height="16" viewBox="0 0 16 16" fill="none" xmlns="http://www.w3.org/2000/svg">
<path fill-rule="evenodd" clip-rule="evenodd" d="M7.9895 2C8.26526 2.00007 8.48876 2.22399 8.48869 2.50013L8.48692 9.29453L11.1314 6.64645C11.3264 6.45118 11.6426 6.45118 11.8376 6.64645C12.0326 6.84171 12.0326 7.15829 11.8376 7.35355L8.34915 10.8467C8.34694 10.849 8.3447 10.8513 8.34244 10.8536C8.14744 11.0488 7.83129 11.0488 7.63629 10.8536L7.62946 10.8467M7.48828 9.29112L7.49005 2.49987C7.49012 2.22373 7.71373 1.99993 7.9895 2" fill="black"/>
<path fill-rule="evenodd" clip-rule="evenodd" d="M3.03282 13.9775C2.48129 13.9775 2.03418 13.5298 2.03418 12.9775L2.03418 11C2.03418 10.7239 2.25773 10.5 2.5335 10.5C2.80927 10.5 3.03282 10.7239 3.03282 11L3.03282 12.9775L13.041 12.9775V11C13.041 10.7239 13.2646 10.5 13.5403 10.5C13.8161 10.5 14.0397 10.7239 14.0397 11V12.9775C14.0397 13.5298 13.5925 13.9775 13.041 13.9775L3.03282 13.9775Z" fill="black"/>
</svg>
