<svg width="16" height="16" viewBox="0 0 16 16" fill="none" xmlns="http://www.w3.org/2000/svg">
<path fill-rule="evenodd" clip-rule="evenodd" d="M5.99181 6V13H12.9823V6H5.99181ZM5.49248 5C5.21672 5 4.99316 5.22386 4.99316 5.5V13.5C4.99316 13.7761 5.21672 14 5.49248 14H13.4816C13.7574 14 13.9809 13.7761 13.9809 13.5V5.5C13.9809 5.22386 13.7574 5 13.4816 5H5.49248Z" fill="black"/>
<path fill-rule="evenodd" clip-rule="evenodd" d="M2.99571 10V3H9.9862V5H10.9848V2.5C10.9848 2.22386 10.7613 2 10.4855 2H2.49639C2.22062 2 1.99707 2.22386 1.99707 2.5V10.5C1.99707 10.7761 2.22062 11 2.49639 11H4.99299V10H2.99571Z" fill="black"/>
</svg>
