<svg width="16" height="16" viewBox="0 0 16 16" fill="none" xmlns="http://www.w3.org/2000/svg">
<path fill-rule="evenodd" clip-rule="evenodd" d="M5.98838 2.00343C5.98838 1.44925 6.436 1 6.98816 1H8.99077C9.54293 1 9.99055 1.44925 9.99055 2.00343V2.95881H8.99077L8.99077 2.00343H6.98816V2.95881H5.98838V2.00343ZM13.7808 3.96241C13.8912 3.96241 13.9808 3.87256 13.9808 3.76173V3.15967C13.9808 3.04883 13.8912 2.95898 13.7808 2.95898H12.9868H2.98904H2.19703C2.08659 2.95898 1.99707 3.04883 1.99707 3.15967V3.76173C1.99707 3.87256 2.08659 3.96241 2.19703 3.96241H3.07235L3.91242 14.08C3.95561 14.6001 4.38878 15.0001 4.90875 15.0001H11.0671C11.5871 15.0001 12.0203 14.6001 12.0635 14.08L12.9035 3.96241H13.7808ZM7.009 6.90737V11.8984C7.009 12.1827 6.77936 12.4132 6.49608 12.4132C6.2128 12.4132 5.98316 12.1827 5.98316 11.8984V6.90737C5.98316 6.62306 6.2128 6.39258 6.49608 6.39258C6.77936 6.39258 7.009 6.62306 7.009 6.90737ZM9.98195 6.93937V11.8664C9.98195 12.1684 9.73803 12.4132 9.43714 12.4132C9.13626 12.4132 8.89234 12.1684 8.89234 11.8664V6.93937C8.89234 6.63738 9.13626 6.39258 9.43714 6.39258C9.73803 6.39258 9.98195 6.63738 9.98195 6.93937Z" fill="black"/>
</svg>
