<svg width="16" height="16" viewBox="0 0 16 16" fill="none" xmlns="http://www.w3.org/2000/svg">
<path fill-rule="evenodd" clip-rule="evenodd" d="M3.99435 2.54545C3.99435 2.24421 3.7708 2 3.49503 2C3.21927 2 2.99571 2.24421 2.99571 2.54545V6H2.49639C2.22062 6 1.99707 6.22386 1.99707 6.5V7.5C1.99707 7.77614 2.22062 8 2.49639 8H2.99571V13.4545C2.99571 13.7558 3.21927 14 3.49503 14C3.7708 14 3.99435 13.7558 3.99435 13.4545V8H4.49367C4.76944 8 4.99299 7.77614 4.99299 7.5V6.5C4.99299 6.22386 4.76944 6 4.49367 6H3.99435V2.54545Z" fill="black"/>
<path fill-rule="evenodd" clip-rule="evenodd" d="M8.48849 2.54545C8.48849 2.24421 8.26494 2 7.98917 2C7.71341 2 7.48985 2.24421 7.48985 2.54545V9H6.99053C6.71476 9 6.49121 9.22386 6.49121 9.5V10.5C6.49121 10.7761 6.71476 11 6.99053 11H7.48985V13.4545C7.48985 13.7558 7.71341 14 7.98917 14C8.26494 14 8.48849 13.7558 8.48849 13.4545V11H8.98781C9.26358 11 9.48713 10.7761 9.48713 10.5V9.5C9.48713 9.22386 9.26358 9 8.98781 9H8.48849V2.54545Z" fill="black"/>
<path fill-rule="evenodd" clip-rule="evenodd" d="M12.9826 2.54545C12.9826 2.24421 12.7591 2 12.4833 2C12.2075 2 11.984 2.24421 11.984 2.54545V4H11.4847C11.2089 4 10.9854 4.22386 10.9854 4.5V5.5C10.9854 5.77614 11.2089 6 11.4847 6H11.984V13.4545C11.984 13.7558 12.2075 14 12.4833 14C12.7591 14 12.9826 13.7558 12.9826 13.4545V6H13.482C13.7577 6 13.9813 5.77614 13.9813 5.5V4.5C13.9813 4.22386 13.7577 4 13.482 4H12.9826V2.54545Z" fill="black"/>
</svg>
