<svg width="16" height="16" viewBox="0 0 16 16" fill="none" xmlns="http://www.w3.org/2000/svg">
<path fill-rule="evenodd" clip-rule="evenodd" d="M2.15759 2.15976C2.37031 1.94675 2.71521 1.94675 2.92793 2.15976L8.21605 7.45508H10.7155C11.0163 7.45508 11.2602 7.69929 11.2602 8.00053C11.2602 8.30178 11.0163 8.54599 10.7155 8.54599H9.30548L13.8222 13.0689C14.0349 13.2819 14.0349 13.6272 13.8222 13.8402C13.6095 14.0533 13.2646 14.0533 13.0519 13.8402L7.7648 8.54599H5.26835C4.96751 8.54599 4.72363 8.30178 4.72363 8.00053C4.72363 7.69929 4.96751 7.45508 5.26835 7.45508H6.67537L2.15759 2.93115C1.94487 2.71814 1.94487 2.37277 2.15759 2.15976ZM13.2204 9.99792L13.9274 10.7059C14.581 9.99368 14.98 9.0435 14.98 8C14.98 5.79086 13.1916 4 10.9854 4H8.98815V5H10.9854C12.64 5 13.9814 6.34315 13.9814 8C13.9814 8.76735 13.6937 9.46741 13.2204 9.99792ZM2.79014 5.96735L2.08355 5.2598C1.41106 5.97564 0.999023 6.93964 0.999023 8C0.999023 10.2091 2.78745 12 4.99359 12L6.99087 12V11H4.99359C3.33899 11 1.99766 9.65685 1.99766 8C1.99766 7.21578 2.29816 6.50185 2.79014 5.96735Z" fill="black"/>
</svg>
