<svg width="16" height="16" viewBox="0 0 16 16" fill="none" xmlns="http://www.w3.org/2000/svg">
<path fill-rule="evenodd" clip-rule="evenodd" d="M3 3V13H13V3H3ZM2.5 2C2.22386 2 2 2.22386 2 2.5V13.5C2 13.7761 2.22386 14 2.5 14H13.5C13.7761 14 14 13.7761 14 13.5V2.5C14 2.22386 13.7761 2 13.5 2H2.5Z" fill="black"/>
<path fill-rule="evenodd" clip-rule="evenodd" d="M5.4779 13L5.47791 2L6.47791 2L6.4779 13H5.4779Z" fill="black"/>
<path fill-rule="evenodd" clip-rule="evenodd" d="M2.16675 5.6228L13.1667 5.6228V6.6228L2.16675 6.6228L2.16675 5.6228Z" fill="black"/>
<path fill-rule="evenodd" clip-rule="evenodd" d="M9.54394 13.3115L9.54395 2.31152L10.5439 2.31152L10.5439 13.3115H9.54394Z" fill="black"/>
<path fill-rule="evenodd" clip-rule="evenodd" d="M2.85522 9.68872L13.8552 9.68872V10.6887L2.85522 10.6887L2.85522 9.68872Z" fill="black"/>
</svg>
